<?xml version="1.0" standalone="no"?>
<!DOCTYPE svg PUBLIC "-//W3C//DTD SVG 20010904//EN"
 "http://www.w3.org/TR/2001/REC-SVG-20010904/DTD/svg10.dtd">
<svg version="1.0" xmlns="http://www.w3.org/2000/svg"
 width="637.000000pt" height="637.000000pt" viewBox="0 0 637.000000 637.000000"
 preserveAspectRatio="xMidYMid meet">

<g transform="translate(0.000000,637.000000) scale(0.100000,-0.100000)"
fill="#000000" stroke="none">
<path d="M4520 5727 c-68 -24 -101 -118 -65 -187 30 -57 112 -77 171 -41 l31
19 46 -34 c43 -31 46 -36 40 -66 -3 -18 -6 -35 -5 -38 1 -49 6 -64 36 -93 41
-42 77 -50 134 -30 49 16 61 10 103 -48 19 -27 19 -28 -1 -70 -38 -85 -16
-181 56 -235 35 -27 44 -29 123 -29 l86 0 29 -53 28 -54 -20 -21 c-28 -30 -42
-70 -42 -120 0 -81 66 -147 148 -147 47 0 50 -4 75 -98 11 -42 11 -43 -25 -72
-47 -39 -72 -101 -63 -158 9 -58 63 -119 120 -134 41 -11 43 -14 49 -56 11
-84 10 -89 -37 -110 -117 -52 -153 -204 -71 -301 14 -17 42 -38 64 -47 l39
-17 -6 -51 c-10 -88 -15 -97 -58 -112 -96 -32 -125 -152 -55 -223 17 -16 30
-33 30 -38 0 -4 -9 -40 -21 -79 l-21 -72 -53 -4 c-133 -11 -194 -147 -118
-262 l26 -40 -31 -55 -31 -55 -65 -1 c-69 0 -100 -15 -139 -67 -29 -39 -33
-114 -8 -162 22 -43 21 -46 -28 -101 l-33 -38 -47 16 c-25 10 -59 17 -76 17
-47 -1 -109 -34 -141 -76 -26 -34 -29 -44 -28 -113 0 -42 4 -87 8 -101 6 -22
1 -30 -41 -62 l-47 -36 -42 24 c-106 62 -214 -3 -214 -130 l0 -56 -65 -32
c-58 -29 -66 -30 -77 -17 -40 49 -120 64 -179 33 -34 -17 -68 -82 -69 -130 0
-29 -3 -32 -60 -47 -78 -22 -77 -22 -117 13 -59 52 -143 38 -178 -30 -57 -110
57 -224 161 -161 27 17 40 37 57 92 3 9 34 24 78 37 l73 21 33 -29 c39 -35 71
-45 120 -37 62 10 113 74 113 141 0 34 3 37 70 71 l69 35 38 -26 c31 -21 47
-25 84 -22 84 8 129 61 129 155 l1 58 52 38 c32 23 57 35 67 31 98 -42 158
-42 220 1 72 50 100 157 65 242 -20 47 -20 43 21 96 l36 46 61 -5 c52 -4 68
-1 101 18 74 44 99 149 55 228 l-22 38 33 58 32 59 59 0 c65 1 98 19 137 75
31 47 30 119 -3 177 -14 23 -30 43 -35 43 -15 0 -11 29 15 104 23 67 24 69 71
85 34 11 55 26 71 50 42 62 24 161 -34 192 -26 14 -25 6 -7 129 5 33 10 41 32
46 95 23 157 100 156 194 -1 87 -49 155 -127 180 -43 14 -43 14 -50 92 l-6 58
41 27 c130 88 91 282 -62 308 -39 7 -40 8 -61 75 l-21 69 34 42 c30 37 33 48
33 104 0 48 -5 70 -21 92 -29 40 -101 75 -142 69 -29 -4 -35 -1 -58 35 -45 72
-49 87 -30 108 10 11 24 40 31 66 47 154 -105 292 -253 229 l-37 -15 -42 46
c-36 39 -42 51 -36 73 26 97 -38 180 -131 169 -22 -2 -50 -8 -61 -11 -15 -5
-34 3 -68 29 -43 33 -47 39 -42 68 10 57 -43 128 -105 141 -14 3 -41 0 -60 -7z"/>
<path d="M3163 5672 c-22 -14 -74 -143 -89 -219 -17 -88 -18 -261 -3 -368 6
-42 8 -79 5 -82 -3 -3 -13 3 -23 14 -39 44 -141 118 -209 150 -107 51 -215 69
-324 56 -126 -16 -249 -70 -198 -88 92 -32 139 -53 209 -97 107 -65 252 -136
306 -150 24 -5 41 -14 38 -18 -2 -4 -31 -10 -63 -12 -111 -11 -323 -124 -308
-164 3 -8 2 -13 -3 -9 -14 8 -61 -53 -92 -119 -16 -33 -27 -61 -25 -63 2 -2
39 12 82 31 98 42 129 51 274 71 135 19 219 44 285 86 26 16 49 28 51 26 2 -2
-1 -19 -6 -38 -26 -91 -2 -232 59 -344 45 -84 73 -95 91 -37 7 20 29 75 51
122 42 94 69 186 69 238 0 39 -2 39 97 -2 35 -15 124 -36 210 -51 160 -26 199
-38 282 -80 29 -14 55 -24 58 -21 9 8 -18 79 -48 127 -83 132 -248 229 -389
229 -52 0 -33 17 48 42 92 29 285 134 276 150 -4 6 -2 8 3 5 6 -4 37 6 70 22
32 15 79 36 106 46 26 10 47 22 47 27 0 26 -181 78 -275 78 -63 0 -202 -33
-258 -61 -78 -40 -184 -119 -227 -171 -41 -47 -44 -49 -57 -32 -24 32 -33 90
-34 201 0 132 25 235 82 341 21 41 39 82 39 92 0 48 -158 103 -207 72z"/>
<path d="M2437 4983 c-9 -2 -15 -9 -12 -13 3 -5 -4 -19 -17 -32 -22 -22 -25
-52 -7 -74 5 -6 5 -15 1 -19 -4 -5 -1 -5 6 -1 17 10 52 -3 52 -20 0 -8 5 -14
11 -14 5 0 7 -4 4 -10 -10 -17 0 -12 69 35 37 25 72 45 78 45 6 0 9 3 6 6 -4
3 -20 -2 -38 -11 -36 -19 -35 -19 -45 14 -7 23 -6 24 26 17 30 -6 26 -1 -33
39 -37 25 -71 44 -75 44 -4 -1 -16 -3 -26 -6z"/>
<path d="M3872 4951 c-34 -21 -59 -41 -55 -44 4 -4 8 -17 10 -28 2 -14 -1 -18
-9 -13 -19 10 -1 -7 55 -50 26 -21 47 -33 47 -27 0 22 47 60 67 55 15 -4 18
-13 15 -47 -5 -46 -18 -70 -35 -60 -6 3 -7 1 -3 -6 4 -6 12 -8 18 -5 6 4 9 3
5 -2 -3 -5 15 -50 39 -99 24 -50 44 -85 44 -78 0 7 9 10 23 6 12 -3 32 -5 44
-5 12 0 24 -7 27 -15 4 -11 2 -13 -9 -9 -9 3 -24 -4 -37 -19 -11 -13 -25 -22
-30 -19 -4 3 -8 -7 -8 -21 0 -59 -33 -78 -95 -55 -14 5 -24 6 -21 1 10 -15
-43 -32 -65 -21 -18 10 -18 12 -3 35 16 25 16 25 -30 44 -59 26 -122 38 -112
22 4 -6 3 -11 -3 -11 -5 0 -13 -9 -16 -20 -5 -14 -12 -19 -24 -15 -21 6 -56
-28 -46 -47 3 -7 0 -5 -8 5 -8 9 -17 17 -21 17 -10 0 -42 35 -49 55 -4 10 -10
15 -14 11 -3 -3 -15 2 -25 11 -16 14 -22 15 -40 4 -15 -9 -18 -9 -13 0 5 7 4
10 -2 6 -6 -4 -14 0 -17 9 -9 23 -8 24 22 25 20 0 13 5 -31 21 -32 11 -60 18
-62 17 -2 -2 -6 -21 -10 -41 l-7 -37 33 9 c42 12 42 12 34 0 -3 -5 1 -10 9
-10 21 0 21 -43 1 -60 -9 -7 -14 -19 -11 -27 4 -9 -5 -13 -35 -13 -25 0 -38
-4 -34 -10 4 -6 10 -8 15 -5 5 3 12 0 16 -6 4 -8 3 -9 -4 -5 -17 11 -15 -15 3
-34 15 -16 13 -20 -16 -49 -17 -18 -34 -29 -37 -27 -3 3 -11 1 -18 -4 -8 -8
-16 -6 -27 5 -21 20 -24 19 -31 -9 -3 -13 -9 -31 -12 -40 -4 -10 -1 -16 7 -16
19 0 59 -44 59 -63 0 -17 -34 -32 -50 -22 -5 3 -10 -1 -10 -9 0 -26 -17 -18
-29 13 -9 21 -19 28 -39 28 -15 0 -36 3 -46 8 -13 5 -17 5 -13 -2 4 -5 0 -19
-8 -29 -12 -16 -11 -22 3 -38 16 -18 16 -19 -1 -13 -14 5 -17 2 -15 -20 2 -14
-3 -28 -10 -30 -9 -4 -12 3 -10 23 2 20 -2 29 -14 32 -10 2 -18 -2 -18 -8 0
-6 5 -8 10 -5 6 3 10 1 10 -4 0 -6 -18 -11 -40 -11 -22 0 -40 -4 -40 -10 0 -5
-9 -10 -21 -10 -11 0 -17 -5 -14 -10 4 -7 13 -7 26 0 15 9 19 7 19 -5 0 -8 -8
-15 -19 -15 -11 0 -22 -10 -26 -22 -4 -14 -8 -18 -12 -10 -2 6 -12 12 -20 12
-11 0 -14 -8 -11 -29 4 -25 1 -29 -19 -26 -14 1 -23 -3 -23 -11 0 -8 -4 -14
-10 -14 -12 0 -1 63 14 72 5 4 14 4 18 2 4 -3 8 0 8 5 0 6 9 11 20 11 11 0 20
5 20 11 0 5 -4 8 -9 5 -5 -4 -11 -2 -13 3 -1 4 -13 12 -25 15 -17 6 -23 3 -23
-8 0 -9 -5 -16 -11 -16 -6 0 -9 7 -5 15 3 8 1 15 -4 15 -14 0 -12 -24 2 -38 9
-9 9 -12 0 -12 -8 0 -12 -17 -12 -46 0 -37 -5 -52 -26 -70 -31 -30 -30 -73 4
-85 19 -7 22 -5 22 15 0 19 4 23 19 19 26 -7 38 17 17 32 -15 12 -15 13 0 19
9 3 14 13 11 20 -7 18 15 27 34 15 12 -8 12 -10 -1 -19 -8 -5 -10 -10 -5 -11
6 0 1 -4 -10 -9 -17 -7 -17 -9 -2 -9 21 -1 23 -17 2 -25 -8 -3 -15 -12 -15
-20 0 -7 -7 -16 -15 -20 -8 -3 -15 -13 -15 -22 0 -11 5 -14 16 -10 9 3 18 6
20 6 3 0 2 5 -2 11 -4 7 2 9 17 7 26 -3 39 -28 15 -28 -9 0 -16 -5 -16 -11 0
-6 8 -8 19 -4 19 6 49 -20 37 -32 -3 -3 -6 -1 -6 5 0 21 -26 13 -27 -8 -1 -15
4 -19 23 -18 13 1 24 8 24 15 0 7 7 13 15 13 8 0 12 -6 9 -14 -4 -11 6 -16 40
-21 44 -7 62 -27 34 -38 -30 -10 83 -17 147 -9 53 7 60 10 30 11 -25 1 -35 4
-27 9 9 7 10 15 3 35 -9 24 -8 26 19 25 19 -1 27 -5 23 -14 -3 -8 1 -14 10
-14 8 0 17 -6 20 -13 3 -9 16 -12 39 -9 31 5 32 4 18 -13 -14 -17 -13 -18 13
-11 l28 7 -3 -66 c-1 -36 -6 -65 -10 -65 -4 0 -8 7 -8 16 0 13 -7 15 -29 11
-24 -5 -31 -2 -36 14 -6 19 -9 18 -31 -15 -24 -35 -32 -62 -15 -51 5 3 12 1
16 -5 3 -5 16 -10 28 -10 21 -1 20 -2 -8 -26 -19 -16 -40 -24 -58 -22 -21 2
-32 -4 -47 -26 -10 -17 -17 -33 -15 -37 8 -13 -56 -19 -133 -12 -48 4 -80 11
-85 20 -10 16 -85 53 -109 53 -10 0 -18 -6 -18 -14 0 -7 -10 -16 -22 -20 -19
-5 -21 -8 -8 -16 11 -7 -6 -10 -57 -10 -84 0 -225 19 -218 30 8 13 -45 31 -63
20 -15 -8 -15 -9 2 -10 11 0 17 -2 14 -5 -11 -11 -417 61 -446 79 -7 4 -10 11
-7 16 3 5 0 12 -6 16 -8 4 -7 9 2 15 7 4 11 11 8 14 -4 3 -25 -4 -48 -17 l-41
-22 -130 43 c-84 28 -130 48 -130 57 0 8 4 14 9 14 5 0 11 11 13 25 6 29 0 32
-18 8 -7 -10 -14 -13 -14 -7 0 6 7 17 15 24 8 7 15 18 15 25 0 17 25 26 38 13
6 -6 12 -6 16 1 4 6 24 11 45 11 36 0 39 -2 44 -32 3 -18 1 -37 -4 -43 -6 -5
-9 -1 -10 10 0 19 -1 19 -8 0 -9 -21 -5 -60 8 -83 6 -11 17 -5 49 29 23 23 50
44 59 45 11 2 2 -11 -22 -31 -22 -18 -37 -37 -32 -41 4 -4 7 -3 7 3 0 6 13 13
30 16 20 4 28 11 24 20 -4 11 5 13 45 9 42 -4 51 -2 51 12 0 9 5 16 10 16 6 0
10 9 10 20 0 11 3 20 6 20 8 0 30 -24 35 -38 2 -7 15 4 29 27 17 28 32 41 48
41 14 0 21 -4 17 -10 -4 -6 -1 -17 5 -25 6 -8 9 -19 5 -25 -3 -5 1 -10 10 -10
13 0 16 6 11 26 -5 20 -1 31 20 51 25 23 26 25 6 19 -20 -7 -21 -5 -13 17 8
19 6 27 -5 31 -10 4 -14 -3 -14 -29 0 -40 -11 -44 -41 -14 -11 11 -27 18 -34
15 -22 -8 -41 22 -28 43 15 24 1 43 -28 39 -16 -2 -24 2 -24 12 0 15 7 16 38
5 13 -6 17 -2 17 15 0 17 -4 20 -21 15 -25 -8 -43 13 -27 32 8 10 5 13 -12 13
-16 0 -20 4 -16 15 6 18 1 19 -25 5 -10 -6 -19 -20 -19 -31 0 -16 -4 -19 -20
-14 -15 5 -18 3 -14 -9 4 -11 1 -16 -10 -16 -9 0 -16 -7 -16 -16 0 -13 -8 -15
-34 -12 -27 3 -36 0 -39 -14 -6 -23 -19 -23 -34 1 -10 16 -9 18 8 14 13 -4 19
0 19 12 0 12 6 16 18 13 16 -5 18 0 12 37 -6 39 -5 41 17 37 22 -4 33 -22 13
-22 -5 0 -10 -9 -10 -20 0 -27 37 -27 45 1 4 11 4 23 1 27 -4 3 -9 -4 -13 -16
-3 -12 -9 -22 -15 -22 -5 0 -4 8 2 19 5 11 10 31 10 45 0 25 10 33 23 19 4 -3
2 -12 -4 -19 -7 -8 -6 -14 2 -20 8 -5 9 -3 4 6 -5 8 -4 11 3 6 6 -4 9 -13 5
-21 -3 -8 0 -15 7 -15 7 0 10 14 8 38 l-3 37 -57 0 c-36 0 -54 3 -48 10 6 5
10 18 10 30 1 20 1 20 16 0 15 -19 15 -18 14 15 -3 51 -1 60 11 60 6 0 8 -9 3
-22 -6 -21 -6 -22 12 -4 10 10 20 28 21 39 3 17 1 18 -12 7 -18 -15 -29 -7
-40 28 -6 21 -4 23 15 17 19 -6 21 -4 15 14 -4 12 0 35 9 54 l16 32 -25 -28
c-23 -25 -27 -27 -45 -14 -11 8 -17 17 -12 22 4 5 1 5 -5 1 -17 -10 -17 -12 9
-36 12 -11 18 -23 14 -27 -4 -4 -12 0 -17 10 -12 21 -49 23 -49 1 0 -17 -22
-14 -28 4 -2 7 3 12 12 12 12 0 16 10 16 36 0 32 2 35 15 24 9 -7 18 -10 22
-7 3 4 12 2 20 -4 9 -9 13 -8 13 0 0 6 -4 11 -10 11 -5 0 -10 16 -10 35 0 33
2 35 29 33 20 -1 31 -9 35 -23 5 -20 6 -20 21 3 9 12 25 22 36 22 11 0 22 6
24 13 3 7 24 12 52 12 27 0 48 5 50 12 6 18 33 3 33 -18 0 -16 -7 -19 -37 -17
-84 4 -187 -24 -120 -34 12 -2 20 -7 19 -12 -2 -5 2 -12 9 -16 9 -6 6 -14 -9
-30 -12 -13 -19 -27 -15 -33 3 -5 10 -2 15 7 5 9 14 16 21 16 7 0 12 14 12 34
0 19 -3 32 -7 30 -4 -2 -9 0 -13 6 -3 5 -1 10 4 10 18 0 26 -4 27 -15 1 -5 2
-14 3 -20 1 -5 6 -2 12 8 5 9 8 21 5 25 -3 5 1 9 9 9 8 0 13 -5 12 -11 -1 -6
3 -10 8 -9 6 1 11 -11 12 -25 0 -15 6 -28 12 -30 6 -2 11 -8 11 -13 0 -6 -5
-7 -10 -4 -11 7 -9 -23 4 -43 11 -17 36 3 36 29 0 21 12 24 41 9 24 -13 25 -2
1 17 -16 13 -16 13 3 11 14 -2 19 2 17 14 -2 12 2 16 13 12 15 -6 21 -24 7
-24 -4 0 -8 -22 -8 -50 -1 -42 2 -50 17 -50 10 0 23 8 28 18 9 14 10 12 11
-13 0 -30 1 -30 45 -27 25 2 45 8 45 13 0 4 7 6 15 3 8 -4 15 -11 15 -16 0 -6
-7 -8 -15 -4 -11 4 -15 -1 -15 -18 0 -30 5 -34 35 -29 16 4 22 10 19 22 -4 13
-3 12 6 -2 13 -20 -2 -47 -25 -47 -6 0 -11 -10 -10 -22 1 -13 6 -22 11 -21 5
1 13 -5 17 -13 12 -21 47 -18 47 5 0 11 -6 22 -12 24 -7 3 -3 6 8 6 12 1 25 8
28 17 7 19 48 15 54 -6 4 -12 2 -13 -9 -2 -19 18 -36 15 -42 -8 -6 -22 -8 -22
119 -24 52 -1 77 -6 91 -18 23 -21 38 -12 40 27 0 17 -1 25 -4 18 -7 -18 -33
-4 -33 18 0 19 -25 37 -36 26 -5 -5 -11 -29 -13 -50 -1 -5 -5 -5 -11 -2 -5 3
-10 0 -10 -7 -1 -8 -6 -6 -15 6 -11 14 -12 23 -5 30 8 8 14 6 21 -4 8 -12 9
-10 4 8 -5 16 -2 22 9 22 21 0 20 27 -1 39 -10 5 -15 13 -11 17 4 4 14 2 21
-4 17 -15 27 -6 27 25 0 14 6 23 15 23 16 0 15 -23 -1 -64 -6 -15 -4 -17 6
-11 10 6 12 4 7 -7 -10 -27 16 -52 46 -44 22 5 27 3 27 -11 0 -13 8 -18 26
-18 21 0 25 4 21 24 -3 14 1 31 9 38 12 12 14 8 14 -30 0 -52 15 -63 48 -37
24 20 29 55 10 64 -10 5 -10 7 0 12 6 3 12 13 12 21 0 10 6 13 16 9 12 -4 15
-2 10 9 -3 10 1 15 12 15 37 0 42 21 16 59 -20 30 -22 38 -10 46 10 8 11 16 5
28 -8 14 -13 14 -23 4 -8 -6 -12 -15 -10 -19 2 -4 0 -9 -6 -13 -5 -3 -10 -1
-10 6 0 8 -13 10 -45 6 -43 -6 -45 -5 -45 18 0 16 -6 25 -15 25 -19 0 -19 -4
1 -41 8 -16 12 -39 9 -49 -4 -14 -2 -20 9 -20 20 0 21 -17 2 -36 -18 -18 -21
-18 -46 3 -26 23 -26 37 1 23 11 -6 25 -9 32 -7 7 3 0 10 -15 16 -16 6 -28 15
-28 21 0 6 -8 19 -17 28 -16 16 -16 16 -9 -3 13 -36 11 -40 -19 -40 -32 0 -41
18 -31 61 6 21 9 22 26 12 16 -10 23 -8 44 15 15 16 26 37 26 49 0 13 5 18 14
15 10 -4 13 -1 9 9 -3 9 0 14 8 12 21 -5 22 29 1 49 -24 21 -33 58 -14 57 32
-3 38 -5 50 -24 9 -15 10 -26 2 -40 -7 -12 -7 -21 0 -25 5 -3 10 -1 10 4 0 6
7 11 16 11 12 0 14 8 9 48 -10 75 -16 102 -23 102 -14 0 -107 -39 -94 -40 17
0 15 -30 -2 -30 -8 0 -22 3 -31 6 -13 5 -14 9 -3 15 7 5 -8 6 -37 3 -27 -4
-52 -8 -54 -10 -2 -1 9 -14 23 -29 51 -51 4 -99 -62 -63 -19 10 -26 10 -29 1
-3 -8 -17 -5 -44 10 -30 16 -39 26 -35 40 4 16 1 18 -22 12 -15 -4 -48 -16
-74 -27 -41 -17 -46 -23 -38 -38 15 -28 13 -30 -25 -30 -19 0 -35 4 -35 9 0 4
-18 3 -41 -3 -37 -10 -43 -9 -59 12 -19 24 -16 53 14 141 13 35 13 42 2 38
-17 -7 -36 11 -36 33 0 8 7 26 16 38 15 22 17 22 35 6 10 -9 16 -22 12 -28
-10 -18 10 5 41 47 26 35 27 40 12 56 -27 30 -46 111 -37 154 7 28 6 37 -2 34
-7 -3 -11 -9 -10 -15 1 -5 -7 -8 -17 -5 -25 7 -25 8 2 33 29 27 11 26 -78 -1
-50 -16 -64 -23 -50 -28 17 -7 17 -8 2 -24 -19 -18 -92 -24 -81 -7 11 17 -8
11 -62 -20 -51 -29 -69 -46 -38 -34 20 8 20 -18 0 -56 -9 -18 -11 -31 -5 -35
6 -3 10 1 10 9 0 9 5 16 11 16 6 0 8 -7 5 -16 -3 -9 -6 -20 -6 -25 0 -17 -40
-9 -47 9 -4 9 -15 25 -25 34 -18 16 -18 17 -1 27 10 6 13 11 7 11 -15 0 -36
-25 -27 -33 3 -4 -2 -7 -11 -7 -25 0 -84 -49 -142 -117 -27 -32 -41 -52 -32
-45 14 11 17 11 20 -2 2 -11 7 -13 18 -6 13 9 13 11 0 20 -12 8 -5 19 40 65
66 67 81 77 101 63 12 -8 11 -9 -2 -5 -9 3 -21 1 -27 -5 -13 -13 8 -68 26 -68
8 0 12 -6 9 -12 -2 -7 -15 -12 -28 -10 -17 2 -20 0 -11 -6 8 -5 12 -20 10 -33
-3 -25 -5 -25 -70 -12 -20 4 -27 0 -33 -16 -3 -12 -13 -21 -21 -21 -8 0 -16
-15 -20 -37 -5 -35 -8 -38 -37 -36 -23 1 -38 -6 -55 -25 l-24 -27 16 32 c9 18
22 36 28 40 7 4 14 16 14 25 3 29 -12 12 -66 -77 -49 -80 -89 -169 -104 -225
-6 -22 -5 -22 11 5 19 31 43 44 44 23 0 -7 1 -32 3 -54 1 -23 -2 -50 -6 -60
-6 -13 -6 -9 -2 11 3 19 2 26 -4 20 -5 -5 -12 -25 -15 -42 -5 -25 -3 -33 8
-33 9 0 15 -10 15 -25 0 -18 -5 -25 -20 -25 -11 0 -20 -7 -20 -15 0 -8 -6 -15
-13 -15 -23 0 -37 23 -37 59 0 53 -8 34 -30 -75 -20 -92 -41 -330 -32 -364 1
-8 21 -22 42 -31 32 -14 38 -21 33 -39 -3 -13 -19 -30 -34 -39 -20 -11 -29
-24 -29 -41 0 -42 32 -190 41 -190 5 0 9 5 9 11 0 7 10 20 22 31 l22 19 -27
52 c-15 29 -27 58 -27 65 0 17 45 15 59 -2 7 -8 25 -19 42 -25 25 -9 29 -8 29
9 0 21 28 40 48 33 6 -3 12 -16 12 -29 0 -13 5 -24 10 -24 6 0 10 7 10 16 0 8
5 12 11 8 7 -4 7 1 -1 16 -16 29 -8 34 34 20 39 -13 48 -30 16 -30 -18 0 -20
-7 -20 -64 0 -70 3 -74 49 -80 30 -3 31 -3 31 40 0 32 5 46 19 53 25 14 38 -3
44 -54 l4 -40 1 42 c1 23 -2 45 -8 48 -5 3 -15 16 -21 27 -11 20 -9 21 22 14
18 -3 46 -18 61 -33 24 -23 31 -25 53 -15 26 12 48 10 113 -10 32 -10 45 -38
17 -38 -8 0 -15 -6 -15 -12 0 -9 -4 -8 -10 2 -7 10 -9 -14 -8 -75 1 -49 3 -75
5 -57 5 39 44 81 84 89 16 3 38 16 48 29 13 17 29 24 52 24 63 0 78 -9 89 -54
15 -59 23 -70 58 -77 30 -6 32 -5 32 22 0 34 33 57 55 39 10 -9 15 -6 20 11 7
20 11 21 84 14 42 -4 79 -9 83 -11 8 -5 -27 -44 -39 -44 -5 0 -27 -18 -50 -39
-23 -21 -50 -45 -60 -52 -10 -8 -23 -27 -28 -44 -13 -39 -51 -47 -64 -13 -7
17 -10 19 -10 6 -1 -10 -6 -18 -12 -18 -6 0 -9 -7 -5 -15 3 -8 1 -15 -4 -15
-5 0 -10 -10 -12 -22 -2 -16 -10 -23 -25 -23 -27 -1 -44 -15 -17 -15 19 -1 19
-1 0 -15 -16 -12 -17 -17 -6 -30 17 -21 1 -19 -23 2 -18 17 -19 17 -28 0 -12
-21 -45 -22 -65 -3 -9 10 -29 13 -60 11 -32 -3 -44 -1 -41 8 2 7 16 13 30 15
16 2 27 9 27 19 0 10 6 13 16 9 12 -4 15 0 12 18 -3 23 16 56 33 56 5 0 4 -9
-3 -20 -14 -22 -12 -25 24 -34 22 -5 26 -3 22 9 -3 8 1 22 11 31 15 15 16 13
12 -35 -1 -28 1 -51 5 -51 8 0 13 29 10 60 -3 27 9 70 18 65 15 -9 22 15 10
30 -9 11 -9 19 -2 28 7 8 7 18 2 27 -5 8 -6 18 -3 22 9 16 -19 38 -48 38 -25
0 -28 -4 -31 -37 -5 -63 -56 -56 -59 7 0 18 -2 21 -7 9 -12 -26 -46 -64 -74
-83 -14 -9 -25 -25 -23 -34 1 -9 -2 -20 -7 -23 -10 -6 19 -69 33 -69 15 0 10
19 -11 40 -20 20 -20 20 22 17 42 -3 68 -27 28 -27 -12 0 -19 -4 -15 -9 3 -5
-4 -16 -15 -24 -11 -7 -17 -17 -13 -21 4 -3 -2 -13 -13 -21 -10 -8 -15 -15
-11 -15 5 0 0 -13 -10 -30 -17 -29 -16 -30 2 -46 11 -8 15 -13 9 -10 -20 10
-84 15 -79 6 3 -5 1 -11 -5 -15 -5 -3 -10 1 -10 10 0 8 -7 18 -15 21 -13 5
-28 35 -30 57 0 4 -6 12 -14 17 -18 10 -24 43 -8 37 7 -3 11 -11 9 -18 -3 -11
-1 -12 9 -1 15 14 33 16 24 2 -3 -5 0 -10 8 -10 8 0 18 -7 21 -16 9 -23 7 -34
-5 -34 -6 0 -8 7 -5 16 3 8 2 13 -3 9 -5 -3 -12 1 -14 7 -3 7 -6 4 -6 -7 -1
-11 8 -28 19 -38 26 -22 31 -21 24 1 -5 16 -5 16 9 0 16 -20 32 -24 21 -6 -5
7 -7 25 -6 40 2 22 -2 28 -19 28 -12 0 -23 8 -26 20 -4 15 -11 19 -32 14 -20
-4 -23 -3 -11 5 19 13 1 14 -20 1 -11 -7 -15 -27 -15 -72 0 -59 -2 -63 -24
-66 -21 -3 -23 -1 -18 25 5 28 4 29 -23 25 -25 -4 -28 -1 -23 17 4 17 8 19 19
10 7 -6 18 -8 25 -4 8 6 8 9 -1 15 -7 4 -10 14 -7 21 3 9 10 2 18 -18 19 -47
26 -41 21 20 -5 64 -17 91 -28 63 -4 -11 -2 -22 7 -28 10 -7 6 -8 -13 -4 -24
5 -26 4 -22 -19 3 -20 0 -25 -15 -25 -11 0 -22 -8 -24 -17 -3 -10 -5 6 -6 35
-1 36 -5 52 -14 52 -10 0 -13 -13 -11 -45 2 -33 -1 -45 -12 -45 -9 0 -14 -11
-14 -36 0 -21 4 -33 10 -29 6 4 8 11 5 16 -7 10 8 13 18 3 13 -13 -27 -38 -58
-36 -34 3 -62 -19 -50 -39 5 -8 1 -9 -14 -4 -13 4 -21 2 -21 -6 0 -8 -5 -8
-16 2 -13 10 -11 2 6 -31 26 -51 98 -160 106 -160 3 0 -3 12 -14 28 -10 15
-25 38 -32 52 -12 22 -12 24 2 12 11 -9 18 -10 23 -2 3 5 2 10 -4 10 -5 0 -8
18 -7 40 2 24 -1 37 -7 33 -5 -3 -7 0 -5 8 3 8 12 13 21 11 11 -2 15 3 13 15
-4 16 3 18 59 15 50 -3 63 -7 58 -18 -6 -16 -23 -19 -23 -3 0 5 -4 7 -10 4 -5
-3 -10 -24 -10 -46 0 -21 -4 -39 -10 -39 -5 0 -10 11 -10 25 0 26 -19 32 -54
19 -26 -10 -7 -25 22 -17 24 6 26 5 14 -10 -22 -26 -7 -35 37 -24 31 8 43 8
56 -3 12 -10 13 -15 4 -21 -12 -7 -23 -59 -13 -59 3 0 15 5 27 12 20 10 21 10
7 -6 -12 -16 -12 -20 0 -30 16 -12 15 -67 -2 -77 -5 -3 4 -20 21 -37 17 -17
31 -39 31 -49 0 -12 -6 -7 -16 14 -9 17 -29 37 -45 44 -52 21 -64 68 -26 100
l22 19 -29 -6 c-21 -5 -27 -4 -22 5 4 6 3 11 -2 11 -6 0 -13 -11 -16 -25 -4
-14 -11 -23 -16 -20 -15 9 -12 -11 3 -24 8 -6 18 -7 22 -3 5 4 5 1 1 -6 -6
-11 -15 -7 -38 15 -51 47 -17 -4 52 -80 34 -37 66 -65 70 -62 5 3 12 0 16 -6
5 -8 3 -9 -7 -4 -27 15 67 -77 127 -126 62 -49 81 -60 68 -36 -4 7 -3 9 2 4 5
-5 9 -14 9 -19 0 -6 6 -13 14 -16 9 -3 11 0 6 8 -5 9 -4 11 4 6 6 -4 9 -11 6
-16 -3 -4 6 -15 20 -24 29 -19 39 -20 29 -4 -4 7 -3 8 5 4 6 -4 9 -11 6 -16
-8 -12 33 -33 47 -24 7 4 8 3 4 -4 -6 -10 56 -48 120 -72 42 -16 26 -2 -21 19
-25 11 -45 22 -45 25 0 3 12 0 27 -7 21 -9 27 -9 31 1 2 6 11 12 21 12 23 0
61 53 61 85 0 22 3 25 20 20 21 -7 50 9 50 27 0 6 -7 5 -15 -2 -19 -15 -20
-14 -28 25 -4 17 -4 24 -1 17 3 -6 10 -10 15 -7 5 4 6 0 3 -8 -4 -10 3 -13 26
-9 18 2 30 0 30 -7 0 -15 33 -14 49 2 11 10 12 7 7 -13 -7 -24 -6 -24 8 -6 8
10 13 31 11 47 -2 17 3 35 11 44 14 13 4 15 -90 15 l-106 0 0 26 c0 14 -4 23
-10 19 -5 -3 -7 -12 -4 -19 4 -12 -7 -37 -51 -115 -7 -12 -19 -16 -38 -14 -19
3 -27 -1 -27 -12 0 -8 -9 -15 -20 -15 -11 0 -20 -6 -20 -12 0 -15 -94 -18
-107 -4 -5 5 -2 6 6 1 11 -6 13 -4 8 8 -4 10 -10 24 -13 32 -4 10 3 16 23 20
15 4 33 8 40 10 17 6 4 47 -24 74 -21 20 -32 23 -70 18 -28 -3 -50 -11 -55
-21 -12 -22 -51 -20 -73 4 -14 15 -20 17 -26 8 -4 -7 -10 -10 -14 -7 -3 3 4
18 16 32 11 15 16 27 10 27 -6 0 -11 -4 -11 -10 0 -5 -9 -14 -20 -20 -19 -10
-20 -10 -8 9 13 21 57 41 90 41 15 0 18 -5 13 -22 -5 -21 -5 -21 8 -6 7 9 22
16 33 15 10 -1 18 4 16 11 -1 7 8 12 23 12 16 0 25 -6 25 -15 0 -8 4 -15 9
-15 15 0 23 18 12 25 -20 12 1 37 25 31 21 -6 24 -3 22 19 -1 14 -10 28 -20
31 -19 6 -25 24 -8 24 6 0 10 -4 10 -10 0 -5 7 -10 15 -10 8 0 15 -7 15 -15 0
-8 5 -15 10 -15 6 0 10 6 10 14 0 9 9 12 27 9 24 -4 25 -3 11 7 -22 13 -24 40
-3 40 8 0 15 9 15 19 0 29 -18 35 -23 9 -2 -13 -5 -4 -6 19 -1 28 -7 45 -18
53 -15 8 -13 9 9 4 18 -4 28 -2 28 6 0 6 6 18 14 26 17 16 26 1 18 -29 -4 -15
-7 -16 -13 -5 -6 9 -9 7 -9 -9 0 -13 -5 -23 -12 -23 -6 0 -8 -3 -5 -6 4 -4 13
-1 21 5 8 7 20 9 27 5 8 -5 10 1 7 20 -3 14 -1 29 3 32 5 3 9 -2 9 -10 0 -20
19 -21 26 -1 4 8 10 12 15 9 5 -3 6 2 3 10 -3 8 -15 18 -26 22 -14 4 -18 12
-14 27 3 12 0 28 -7 36 -10 12 -9 13 1 7 17 -10 42 11 43 38 1 19 2 18 8 -4
l7 -25 17 30 c9 17 19 38 23 48 9 25 32 21 71 -13 42 -37 82 -39 118 -6 31 29
31 69 0 74 -21 4 -75 50 -75 64 0 4 7 8 15 8 8 0 15 -4 15 -10 0 -5 11 -10 25
-10 16 0 25 -6 25 -15 0 -8 7 -15 15 -15 8 0 14 -6 13 -12 -2 -8 10 -14 28
-16 25 -2 33 1 37 17 3 12 10 21 16 21 14 0 14 -23 1 -36 -6 -6 -13 -21 -15
-34 -2 -13 -10 -28 -17 -33 -9 -6 -8 -7 5 -3 18 6 25 -18 7 -29 -5 -3 -10 -21
-10 -39 0 -30 -2 -32 -29 -28 -30 4 -35 -10 -17 -51 8 -16 11 -15 27 12 21 34
46 40 56 14 5 -14 8 -13 15 6 8 21 12 22 123 19 63 -2 115 0 115 3 0 3 8 14
18 25 9 10 22 32 27 48 13 38 32 44 44 14 7 -17 10 -18 10 -5 1 20 41 24 41 3
0 -7 9 -16 21 -19 11 -3 23 -15 26 -26 3 -13 13 -21 28 -21 23 0 60 -32 49
-43 -4 -3 11 3 32 14 66 34 137 14 188 -54 15 -21 21 -47 24 -117 4 -72 7 -90
20 -90 8 0 20 -7 26 -15 8 -12 10 6 8 72 -2 49 1 99 6 113 8 21 5 31 -20 58
-35 40 -32 54 12 66 27 8 35 7 46 -8 7 -10 18 -15 26 -11 7 4 2 -3 -12 -14
-30 -25 -19 -28 16 -4 14 9 42 20 62 24 35 8 35 8 -8 5 -46 -4 -34 6 22 18 15
3 33 13 42 21 19 19 26 19 42 -2 12 -16 15 -16 24 -3 9 12 10 12 8 -5 -4 -25
-37 -46 -63 -38 -11 3 -5 -5 14 -18 60 -42 76 -81 76 -189 0 -67 -5 -104 -16
-126 -13 -25 -13 -32 -2 -42 21 -20 15 -49 -13 -71 -34 -27 -42 -26 -56 3 -9
21 -17 25 -59 24 -26 0 -54 4 -61 8 -10 6 -10 5 0 -9 17 -20 12 -52 -7 -52 -8
0 -16 -6 -18 -12 -3 -7 2 -13 11 -13 9 0 16 -4 16 -10 0 -5 7 -10 16 -10 26 0
10 -23 -19 -27 -20 -3 -25 0 -21 10 3 8 -3 23 -13 33 -23 23 -24 69 -1 85 17
12 17 14 -3 35 -18 19 -25 20 -55 11 -21 -6 -34 -17 -34 -27 0 -9 -9 -25 -20
-35 -10 -9 -18 -22 -17 -27 1 -6 -4 -13 -10 -15 -7 -3 -13 0 -13 6 0 6 -5 11
-11 11 -6 0 -8 -9 -4 -22 4 -18 2 -16 -11 6 -8 15 -14 37 -11 47 3 11 1 17 -4
13 -5 -3 -31 -5 -58 -6 -42 0 -48 -2 -44 -18 3 -10 0 -27 -6 -39 -8 -15 -9
-21 -1 -21 6 0 8 -6 4 -12 -6 -10 -4 -10 7 0 16 15 39 16 39 0 0 -6 -3 -8 -7
-5 -3 4 -14 0 -23 -8 -20 -18 -54 -9 -46 12 4 8 1 11 -5 8 -6 -4 -13 3 -16 14
-4 15 -12 20 -27 18 -35 -4 -46 -17 -46 -52 0 -33 -28 -95 -43 -95 -5 0 -5 4
-2 10 3 5 -12 17 -34 26 -34 13 -41 21 -41 44 0 15 7 30 15 34 8 3 12 11 10
18 -3 8 7 18 24 25 23 8 37 25 55 66 13 30 29 58 35 61 7 5 9 27 5 64 -4 31
-8 58 -9 59 -1 2 -24 -8 -51 -22 -27 -14 -45 -25 -40 -25 5 0 3 -7 -4 -15 -10
-12 -10 -15 1 -15 9 -1 8 -4 -4 -11 -23 -14 -47 4 -40 30 3 10 0 22 -5 25 -12
7 -4 46 9 46 5 0 4 11 -2 24 -8 17 -8 29 1 45 16 31 70 26 88 -9 11 -22 12
-18 6 35 -4 33 -11 62 -15 63 -5 2 -9 9 -9 15 0 7 -14 18 -32 26 -29 13 -33
13 -50 -8 -10 -13 -15 -27 -12 -32 18 -30 -61 -139 -89 -122 -7 4 0 -8 16 -26
27 -33 32 -46 41 -111 2 -19 8 -47 11 -62 11 -42 -2 -75 -35 -95 -20 -11 -28
-23 -25 -34 3 -10 -1 -19 -10 -23 -16 -6 -21 -56 -5 -56 6 0 10 5 10 11 0 6 7
4 15 -5 8 -8 15 -20 15 -26 0 -13 42 -10 51 4 9 12 29 -2 29 -20 0 -9 -10 -14
-29 -14 -16 0 -31 -5 -33 -11 -3 -9 -10 -9 -26 0 -25 14 -28 3 -7 -25 19 -25
19 -40 0 -24 -8 6 -20 8 -26 4 -8 -5 -10 -2 -6 9 3 9 0 18 -9 21 -8 3 -14 15
-14 26 0 20 -1 20 -16 6 -8 -9 -22 -16 -30 -16 -8 0 -14 -5 -14 -10 0 -6 6
-10 13 -9 40 5 47 -1 47 -41 0 -30 4 -40 16 -40 9 0 14 -6 11 -12 -2 -7 -11
-11 -18 -9 -17 4 -26 5 -61 3 -22 -2 -28 -7 -28 -25 0 -13 3 -27 7 -31 19 -19
10 -36 -20 -37 -55 -2 44 -18 168 -28 110 -8 139 -6 114 10 -11 7 -12 9 -1 9
10 0 12 13 10 50 -2 27 -7 52 -11 56 -15 15 -5 19 36 16 23 -2 49 -10 58 -18
12 -11 18 -11 27 -2 9 9 12 9 12 1 0 -7 -5 -15 -10 -18 -16 -10 -8 -85 10 -86
8 -1 2 -5 -15 -9 -58 -15 83 -11 194 6 167 24 377 88 486 147 38 21 28 22 -18
2 -32 -13 -36 -13 -31 0 9 22 -12 42 -52 49 -19 4 -40 16 -47 26 -6 11 -17 20
-24 20 -7 0 -13 5 -13 10 0 15 16 12 30 -5 15 -18 37 -19 43 -2 3 6 6 1 6 -12
1 -19 5 -23 26 -19 17 4 25 1 25 -8 0 -8 5 -14 10 -14 9 0 14 14 11 32 -2 15
34 8 68 -13 32 -19 32 -21 15 -34 -22 -17 -11 -20 17 -4 11 5 16 15 13 21 -4
7 -3 8 4 4 13 -8 48 9 143 70 38 25 67 49 64 54 -3 4 14 23 37 41 24 19 37 26
29 16 -26 -32 1 -17 62 36 129 111 289 321 371 485 52 102 59 122 41 116 -8
-3 -21 6 -30 20 -10 14 -23 26 -29 26 -7 0 -19 11 -26 25 -7 14 -20 25 -27 25
-9 0 -13 8 -11 23 2 16 -2 22 -17 22 -14 0 -21 8 -25 30 -3 17 -1 33 4 37 6 4
4 13 -4 22 -7 9 -10 19 -6 23 9 10 96 10 96 1 0 -5 -5 -8 -11 -8 -6 0 -4 -7 5
-15 8 -8 20 -15 26 -15 6 0 13 -8 17 -17 3 -10 21 -33 40 -51 18 -18 33 -43
34 -55 1 -19 2 -18 14 8 18 42 30 105 16 85 -8 -12 -11 -12 -11 -1 0 19 -43
111 -52 111 -5 0 -8 9 -8 21 0 18 -2 18 -25 -7 -25 -26 -26 -27 -45 -9 -18 16
-20 29 -18 99 3 79 4 81 28 81 24 0 25 -3 31 -85 l5 -85 2 78 c2 70 5 81 30
108 25 27 30 29 60 18 18 -6 35 -9 38 -6 3 2 -5 21 -17 41 l-21 36 32 17 c61
34 59 31 53 122 -5 71 -8 81 -19 67 -16 -22 -27 -5 -18 29 4 15 2 25 -5 25 -6
0 -11 -17 -11 -39 0 -39 -20 -68 -40 -56 -19 12 -10 -39 12 -62 l21 -23 -37
-15 c-28 -12 -41 -13 -51 -5 -23 19 -60 8 -59 -17 0 -19 -12 -28 -73 -53 -95
-40 -133 -48 -133 -27 0 16 -26 30 -41 21 -12 -7 -11 -34 1 -34 6 0 10 -3 10
-7 0 -13 -115 -42 -140 -36 -16 4 -21 3 -16 -5 7 -12 0 -15 -104 -36 -45 -10
-68 -11 -75 -4 -7 8 -6 8 4 3 8 -4 17 -2 22 6 12 20 11 29 -3 24 -30 -11 -68
-13 -68 -4 0 5 13 9 28 9 16 0 29 6 30 13 0 6 3 27 6 45 3 17 1 32 -4 32 -6 0
-10 -3 -10 -7 0 -5 -11 -13 -25 -19 -23 -11 -24 -11 -18 20 3 17 10 33 15 34
4 2 6 8 2 13 -3 5 14 9 38 10 24 0 37 3 31 6 -7 2 -13 16 -13 29 0 13 -5 23
-12 21 -19 -4 -47 -30 -42 -39 3 -4 -2 -8 -10 -8 -14 0 -21 -18 -17 -42 0 -5
-4 -8 -10 -8 -6 0 -8 13 -5 30 2 16 0 32 -5 36 -5 3 -9 0 -9 -6 0 -7 -8 -9
-21 -5 -14 5 -19 3 -15 -3 4 -6 -3 -20 -15 -31 -16 -14 -30 -18 -55 -14 -25 4
-34 2 -35 -8 -1 -8 -7 4 -13 26 -9 28 -19 41 -34 43 -12 2 -22 8 -22 13 0 6
-6 7 -12 3 -9 -5 -9 -2 1 9 9 11 10 17 2 17 -6 0 -11 5 -11 11 0 5 6 7 13 3
10 -6 10 -4 0 7 -7 7 -13 23 -13 36 0 20 -5 23 -35 23 -35 0 -41 -8 -36 -49 2
-7 -2 -10 -8 -6 -6 3 -11 1 -11 -4 0 -14 27 -14 32 0 2 6 15 9 28 6 l25 -4
-22 -8 c-13 -4 -23 -12 -23 -17 0 -16 28 -38 49 -38 13 0 21 -8 23 -22 2 -15
11 -24 26 -26 30 -5 28 -17 -3 -17 -14 0 -25 3 -25 8 0 4 -4 7 -10 7 -18 0
-10 -47 11 -66 22 -19 22 -19 8 4 -12 19 -12 24 0 31 23 15 41 1 41 -31 0 -26
2 -29 15 -18 8 7 15 24 15 37 0 19 4 24 16 19 9 -3 20 -6 25 -6 17 0 9 -32
-10 -37 -12 -3 -17 -11 -14 -23 3 -12 11 -16 24 -13 15 4 17 9 9 18 -8 10 -5
17 12 29 23 16 23 16 26 -30 2 -35 7 -44 18 -40 17 6 19 -10 2 -20 -6 -4 -18
2 -25 12 -14 18 -14 17 -8 -12 6 -30 4 -32 -29 -38 -20 -4 -36 -11 -36 -15 0
-8 -129 -31 -173 -31 -18 0 -19 2 -7 10 12 8 11 10 -6 10 -22 0 -44 18 -44 35
0 5 5 3 10 -5 7 -11 10 -7 10 17 0 17 6 34 13 36 7 4 6 6 -5 6 -9 1 -19 -5
-21 -11 -3 -8 -6 -6 -6 5 -1 9 6 17 16 17 9 0 13 3 9 7 -4 4 -24 7 -44 5 -20
-1 -31 1 -24 4 15 7 16 44 1 44 -16 0 -38 31 -39 53 0 9 -4 17 -10 17 -5 0
-10 11 -10 25 0 20 -5 25 -24 25 -21 0 -25 5 -24 30 1 23 5 29 15 25 8 -3 20
-5 27 -5 7 0 12 -10 12 -22 -1 -14 5 -23 14 -23 17 0 35 -23 25 -33 -3 -4 -10
0 -15 8 -6 9 -10 10 -10 3 0 -6 7 -18 15 -27 8 -8 15 -19 15 -25 0 -6 5 -11
10 -11 13 0 13 77 1 82 -16 5 -18 70 -2 76 10 3 12 -1 8 -17 -3 -11 -1 -19 4
-15 5 3 9 0 9 -5 0 -6 5 -11 11 -11 8 0 8 5 -1 15 -10 12 -10 15 4 15 9 0 16
5 16 10 0 6 7 10 15 10 13 0 17 6 14 26 0 4 5 11 13 15 11 7 11 9 -1 9 -8 0
-11 6 -7 15 3 9 -1 18 -9 21 -11 4 -11 9 -3 18 17 18 45 -12 40 -43 -4 -20 -2
-22 16 -17 28 9 63 -25 55 -53 -4 -15 -1 -21 11 -21 9 0 16 -4 16 -10 0 -5 6
-10 13 -10 9 0 12 -9 9 -29 -4 -26 -1 -29 16 -24 15 3 29 -4 47 -22 14 -16 25
-26 26 -24 0 2 3 19 5 37 5 29 3 32 -20 32 -16 0 -26 6 -26 15 0 9 9 15 25 15
16 0 25 -6 25 -15 0 -8 9 -15 20 -15 11 0 20 -4 20 -10 0 -5 4 -10 9 -10 4 0
6 11 3 25 -4 22 -1 25 22 25 21 0 26 5 26 24 0 23 -3 25 -50 21 -44 -3 -48 -2
-36 11 8 8 20 14 26 14 8 0 10 10 8 25 -5 22 -2 25 16 20 19 -6 20 -5 4 8 -10
8 -18 22 -18 31 0 10 -8 16 -25 16 -14 0 -25 -5 -25 -11 0 -6 -6 -17 -14 -24
-12 -12 -16 -12 -28 2 -7 9 -8 14 -2 10 18 -11 24 42 7 59 -13 12 -13 14 0 14
8 0 17 -7 21 -15 3 -9 18 -15 40 -15 29 0 35 -4 41 -27 8 -33 21 -43 58 -43
29 0 36 -16 13 -34 -15 -12 -28 -116 -14 -116 4 0 8 11 8 25 0 20 5 25 25 25
14 0 24 3 24 8 -5 28 3 40 26 38 30 -1 33 -16 5 -23 -40 -11 -19 -22 35 -20
30 2 51 1 46 -2 -19 -12 -17 -71 3 -71 8 0 17 -7 20 -16 3 -8 10 -12 16 -9 6
3 10 -5 10 -19 0 -13 3 -31 6 -40 7 -19 34 -21 34 -3 0 8 7 14 15 14 8 0 15
-4 15 -9 0 -4 5 -8 12 -8 6 0 8 3 5 7 -4 3 -1 13 6 21 10 13 9 15 -10 10 -18
-5 -23 -2 -23 13 0 14 -7 19 -25 19 -14 0 -25 5 -25 11 0 6 10 10 23 9 49 -4
87 1 87 11 0 7 -12 10 -30 7 -24 -4 -30 -1 -30 13 0 11 5 16 13 13 10 -4 12 3
9 28 -4 29 -3 31 11 20 13 -11 16 -10 19 5 2 10 1 35 -3 56 -3 20 -2 37 2 37
5 0 9 -4 9 -10 0 -5 11 -10 24 -10 13 0 27 -6 29 -12 3 -7 6 4 6 25 1 23 -3
36 -9 32 -16 -10 -11 1 7 16 11 10 14 10 9 2 -5 -9 1 -13 21 -13 27 0 28 -1
25 -50 -3 -39 -1 -50 11 -50 8 0 28 -7 43 -16 l29 -15 -31 6 c-29 6 -31 4 -31
-20 0 -19 3 -23 10 -16 6 6 19 11 28 11 18 0 29 18 22 38 -3 6 -11 12 -19 12
-13 0 -20 32 -14 69 1 8 -4 18 -12 22 -10 7 -10 9 0 9 7 0 15 -7 18 -15 4 -8
10 -13 15 -10 4 3 20 3 34 -1 20 -5 23 -9 13 -15 -9 -6 -7 -9 10 -9 17 0 22 6
22 25 0 21 5 25 33 26 30 1 31 1 7 9 -14 5 -18 8 -9 9 9 1 22 8 30 17 12 14
14 14 27 -3 13 -17 13 -16 11 7 -3 29 8 65 30 99 l15 24 7 -24 c4 -13 7 -41 8
-61 1 -21 6 -38 11 -38 6 0 8 10 5 23 -2 12 -9 50 -15 85 -6 35 -15 73 -19 85
l-8 22 -7 -23 c-5 -15 -13 -21 -23 -18 -8 3 -19 6 -24 6 -5 0 -8 8 -7 18 1 9
0 32 0 51 -2 30 -4 33 -26 27 -18 -4 -25 -1 -29 15 -3 12 -10 18 -15 15 -14
-8 -33 49 -21 61 6 6 4 20 -5 37 -8 16 -17 23 -21 17 -10 -18 -21 -13 -33 15
-7 14 -17 22 -23 18 -7 -4 -10 -1 -7 7 4 13 8 15 44 18 11 1 14 7 10 17 -5 12
-2 15 11 10 15 -6 15 -4 -2 14 l-18 20 -19 -20 c-10 -11 -23 -20 -27 -20 -13
0 -21 27 -15 48 4 10 3 13 -3 6 -4 -6 -17 -13 -28 -16 -18 -4 -21 0 -22 36 -4
89 1 84 -78 77 -23 -2 -19 -54 5 -71 25 -18 26 -29 3 -25 -10 1 -17 8 -15 14
3 17 -15 13 -22 -5 -8 -22 -8 -26 4 -19 6 3 10 -4 10 -17 0 -18 -2 -20 -9 -8
-6 8 -24 14 -45 13 -20 -1 -39 3 -42 9 -10 16 4 22 21 8 9 -8 15 -8 15 -2 0 6
-4 14 -10 17 -12 8 -13 25 -1 25 5 0 11 -9 14 -21 7 -25 33 -20 29 6 -2 10 1
14 7 10 6 -3 11 -1 11 4 0 6 -15 11 -32 11 -26 0 -30 3 -18 11 11 8 12 12 3
16 -8 2 -13 22 -13 44 0 44 -8 48 -33 19 -20 -24 -35 -26 -43 -5 -4 8 -11 15
-16 15 -6 0 -8 -6 -5 -12 2 -7 1 -22 -3 -33 -4 -11 -3 -28 2 -37 6 -14 5 -18
-7 -18 -13 0 -20 -18 -16 -42 0 -5 -4 -8 -10 -8 -8 0 -10 12 -6 34 3 19 3 37
0 40 -3 3 -7 22 -9 41 -3 31 -1 35 15 30 20 -6 39 23 23 34 -15 10 -22 53 -8
48 9 -4 13 9 15 46 1 29 8 58 16 67 8 9 15 21 15 27 0 6 5 13 11 15 6 2 -11
16 -39 31 -56 30 -70 34 -52 12 10 -12 9 -18 -5 -31 -13 -13 -19 -14 -25 -5
-5 9 -10 10 -14 2 -4 -6 -2 -11 3 -11 18 0 13 -67 -5 -74 -9 -4 -14 -13 -10
-21 3 -8 2 -15 -3 -15 -21 0 -29 106 -8 113 8 3 5 12 -10 29 -27 29 -29 48 -5
48 27 1 -5 17 -51 25 -33 6 -36 5 -30 -11 5 -13 3 -16 -10 -11 -11 4 -17 -1
-19 -16 -2 -12 -11 -23 -22 -25 -11 -2 -16 0 -12 7 4 5 -3 15 -14 21 -27 14
-26 40 3 48 20 6 20 7 -8 13 -59 13 -90 7 -153 -30z m168 -81 c0 -5 -5 -10
-11 -10 -5 0 -7 5 -4 10 3 6 8 10 11 10 2 0 4 -4 4 -10z m-1800 -71 c0 -6 9
-8 20 -4 23 7 26 -1 6 -21 -21 -21 -33 -17 -38 11 -3 14 -1 25 3 25 5 0 9 -5
9 -11z m1938 -51 c-2 -13 -12 -24 -26 -28 -12 -3 -35 -17 -51 -32 -19 -18 -35
-25 -49 -21 -27 7 -19 23 11 23 12 0 35 11 50 26 15 14 32 22 39 18 7 -5 9 -2
5 8 -6 17 0 28 15 28 5 0 8 -10 6 -22z m-1898 -18 c0 -11 -4 -20 -10 -20 -5 0
-10 9 -10 20 0 11 5 20 10 20 6 0 10 -9 10 -20z m1995 0 c-3 -5 -10 -10 -16
-10 -5 0 -9 5 -9 10 0 6 7 10 16 10 8 0 12 -4 9 -10z m127 -170 c5 -33 -4 -46
-25 -33 -23 14 -12 62 14 63 4 0 9 -14 11 -30z m-2192 -11 c0 -12 -10 -30 -22
-41 l-23 -20 -3 26 c-3 27 14 55 36 56 6 0 12 -10 12 -21z m2323 -36 c-4 -10
-9 -11 -16 -4 -5 5 -7 18 -3 28 6 14 9 15 16 4 4 -8 6 -21 3 -28z m-165 -5
c-6 -18 -28 -21 -28 -4 0 9 7 16 16 16 9 0 14 -5 12 -12z m200 -20 c-6 -18
-28 -21 -28 -4 0 9 7 16 16 16 9 0 14 -5 12 -12z m-2719 -21 c-9 -7 -18 -28
-22 -47 -3 -19 -3 -30 -1 -24 3 7 13 10 23 7 10 -3 22 0 26 7 9 14 35 -6 35
-26 0 -21 -20 -17 -21 4 -1 15 -2 15 -6 0 -3 -13 -13 -16 -43 -13 -29 3 -42
-1 -50 -13 -7 -13 -9 -9 -10 20 0 39 40 95 70 96 13 1 13 0 -1 -11z m2414 -21
c14 -14 23 -27 20 -30 -5 -5 -17 5 -42 37 -20 25 -6 21 22 -7z m97 0 c0 -8 -7
-16 -15 -20 -17 -6 -18 -4 -9 18 8 20 24 21 24 2z m38 -4 c2 -7 -3 -12 -10
-12 -8 0 -15 7 -15 15 0 18 19 15 25 -3z m52 -2 c0 -5 -4 -10 -10 -10 -5 0
-10 5 -10 10 0 6 5 10 10 10 6 0 10 -4 10 -10z m-2438 -26 c14 -14 20 -14 33
-4 22 18 19 4 -7 -30 -28 -38 -38 -38 -38 0 0 17 -4 30 -10 30 -5 0 -10 5 -10
10 0 15 11 12 32 -6z m280 3 c14 -22 9 -47 -8 -40 -12 4 -14 0 -9 -20 9 -36
-1 -50 -27 -36 -18 10 -20 9 -15 -5 4 -9 2 -16 -3 -16 -6 0 -10 5 -10 10 0 6
-7 10 -15 10 -8 0 -15 4 -15 9 0 13 25 20 52 14 23 -5 23 -5 3 11 -19 15 -19
17 -2 30 25 20 21 26 -13 20 -26 -6 -39 3 -25 17 10 10 80 7 87 -4z m1404 -14
c-10 -10 -19 5 -10 18 6 11 8 11 12 0 2 -7 1 -15 -2 -18z m934 17 c0 -5 -4
-10 -10 -10 -5 0 -10 5 -10 10 0 6 5 10 10 10 6 0 10 -4 10 -10z m-196 -31
c-16 -10 -31 -16 -33 -13 -8 8 42 43 52 37 5 -3 -4 -14 -19 -24z m-186 -2 c13
-15 4 -33 -18 -38 -15 -4 -70 32 -70 45 0 12 78 6 88 -7z m80 -5 c2 -7 -2 -10
-12 -6 -9 3 -16 11 -16 16 0 13 23 5 28 -10z m-1801 -11 c23 -23 77 -35 69
-15 -9 22 9 16 33 -12 12 -14 19 -29 15 -32 -4 -4 -9 -1 -11 6 -3 6 -9 12 -15
12 -6 0 -8 -7 -4 -15 3 -9 0 -15 -9 -15 -9 0 -12 6 -9 15 4 8 1 15 -5 15 -6 0
-11 -6 -12 -12 0 -7 -2 -23 -3 -35 -2 -14 3 -23 11 -23 7 0 13 -3 13 -6 0 -11
-43 -44 -49 -39 -3 4 1 10 9 15 11 7 12 13 2 35 -7 15 -10 37 -7 49 5 18 5 19
-5 4 -16 -26 -33 -22 -27 4 4 15 -1 30 -15 45 -12 13 -16 23 -10 23 6 0 19 -8
29 -19z m1577 1 c-19 -16 -20 -21 -8 -37 19 -25 18 -32 -6 -38 -22 -6 -27 7
-8 19 8 5 5 11 -7 20 -10 8 -17 15 -14 17 16 13 54 37 59 37 3 -1 -5 -9 -16
-18z m534 -21 c-2 -14 -9 -25 -15 -23 -22 4 -14 -32 13 -58 17 -16 22 -26 14
-28 -7 -3 -16 2 -21 9 -27 48 -36 54 -62 40 -14 -7 -34 -10 -47 -6 -19 6 -21
4 -15 -17 4 -12 14 -30 21 -39 25 -28 15 -31 -13 -4 -28 25 -28 25 -45 5 -21
-26 -28 -25 -28 1 0 14 5 19 15 16 11 -5 13 0 8 25 l-6 31 52 -7 c43 -6 52 -4
58 11 4 9 2 18 -5 21 -27 9 -10 24 23 20 32 -4 34 -2 29 19 -5 19 -3 22 10 17
11 -4 16 -16 14 -33z m-1791 7 c-3 -8 -6 -5 -6 6 -1 11 2 17 5 13 3 -3 4 -12
1 -19z m1313 2 c0 -11 4 -20 10 -20 5 0 7 8 3 18 -3 9 -4 15 -2 12 33 -40 42
-52 31 -46 -18 11 -42 -12 -42 -39 0 -13 -6 -25 -14 -28 -12 -5 -12 0 -5 26
12 43 12 47 -6 47 -15 0 -21 31 -8 43 13 14 33 6 33 -13z m210 10 c0 -5 -4
-10 -10 -10 -5 0 -10 5 -10 10 0 6 5 10 10 10 6 0 10 -4 10 -10z m-770 -40 c0
-18 -5 -30 -13 -30 -8 0 -12 11 -11 28 2 33 2 32 14 32 6 0 10 -13 10 -30z
m90 21 c0 -12 -29 -35 -36 -28 -11 10 5 37 21 37 8 0 15 -4 15 -9z m750 -31
c0 -5 -4 -10 -10 -10 -5 0 -10 5 -10 10 0 6 5 10 10 10 6 0 10 -4 10 -10z
m-802 -27 c-9 -10 -13 -25 -11 -33 3 -10 -1 -9 -11 4 -16 19 -12 41 5 31 5 -4
9 -1 9 4 0 6 5 11 12 11 7 0 6 -6 -4 -17z m752 -17 c0 -30 -3 -33 -21 -29 -29
8 -36 33 -14 49 28 21 35 17 35 -20z m-1744 -7 c19 -22 19 -22 -3 -8 -13 8
-23 17 -23 21 0 12 6 9 26 -13z m884 -9 c0 -23 -31 -27 -49 -6 -9 11 -6 12 14
8 15 -2 25 0 25 7 0 6 2 11 5 11 3 0 5 -9 5 -20z m-1153 -15 c9 -24 -1 -27
-15 -5 -8 13 -8 20 -2 20 6 0 13 -7 17 -15z m136 7 c2 7 8 9 13 5 11 -11 -15
-27 -33 -20 -7 3 -13 10 -13 15 0 6 6 6 14 -1 11 -9 15 -9 19 1z m187 -2 c0
-5 -7 -10 -15 -10 -8 0 -15 5 -15 10 0 6 7 10 15 10 8 0 15 -4 15 -10z m1640
-5 c11 -13 10 -14 -4 -9 -9 3 -16 10 -16 15 0 13 6 11 20 -6z m253 -25 c4 -17
11 -19 31 -14 32 8 35 -11 4 -20 -16 -4 -28 0 -40 15 -20 23 -23 39 -9 39 5 0
11 -9 14 -20z m121 -14 c-3 -9 -12 -16 -20 -16 -20 0 -17 -10 11 -40 24 -25
25 -28 9 -41 -16 -12 -17 -12 -12 2 8 20 -9 39 -35 39 -13 0 -17 5 -13 16 3 9
6 20 6 25 0 6 4 8 9 5 4 -3 16 3 26 14 20 23 29 21 19 -4z m-2292 -8 c-6 -6
-15 -8 -19 -4 -4 4 -1 11 7 16 19 12 27 3 12 -12z m190 -10 c-7 -7 -12 -8 -12
-2 0 6 3 14 7 17 3 4 9 5 12 2 2 -3 -1 -11 -7 -17z m968 16 c0 -3 -7 -12 -15
-20 -12 -13 -15 -13 -15 -1 0 7 3 17 7 20 8 8 23 9 23 1z m-882 -21 c-5 -25
-28 -28 -28 -4 0 12 6 21 16 21 9 0 14 -7 12 -17z m1652 -4 c0 -6 -4 -7 -10
-4 -5 3 -10 11 -10 16 0 6 5 7 10 4 6 -3 10 -11 10 -16z m40 1 c0 -5 -4 -10
-10 -10 -5 0 -10 5 -10 10 0 6 5 10 10 10 6 0 10 -4 10 -10z m92 -10 c21 0 24
-16 4 -23 -8 -3 -21 2 -30 12 -18 20 -22 41 -4 23 7 -7 20 -12 30 -12z m-1612
-22 c0 -12 -14 -10 -28 4 -19 19 -14 29 8 16 11 -7 20 -16 20 -20z m1122 10
c-7 -7 -12 -8 -12 -2 0 6 3 14 7 17 3 4 9 5 12 2 2 -3 -1 -11 -7 -17z m83 -8
c3 -5 1 -10 -4 -10 -6 0 -11 5 -11 10 0 6 2 10 4 10 3 0 8 -4 11 -10z m85 0
c0 -5 -5 -10 -10 -10 -7 0 -7 -7 1 -22 10 -18 7 -25 -26 -56 -27 -26 -39 -32
-48 -23 -8 8 -7 11 3 11 8 0 28 14 43 29 28 28 28 29 8 36 -26 8 -28 32 -3 38
29 8 32 7 32 -3z m462 -2 c18 4 20 2 13 -27 -5 -26 -4 -30 9 -25 12 4 16 0 16
-15 0 -12 5 -21 10 -21 6 0 10 -5 10 -12 0 -6 -7 -4 -18 5 -10 10 -26 17 -35
17 -13 0 -15 8 -12 38 4 26 2 33 -5 22 -8 -12 -10 -13 -10 -1 0 8 -3 11 -6 8
-4 -4 -1 -13 6 -22 7 -9 10 -19 6 -23 -4 -4 -13 1 -20 11 -14 19 -46 23 -46 6
0 -6 -7 -4 -15 5 -17 17 -20 36 -5 36 6 0 11 -8 11 -17 1 -16 2 -16 6 -1 4 16
55 30 61 17 2 -4 12 -4 24 -1z m-2672 -13 c0 -8 0 -18 1 -22 0 -4 -4 -9 -10
-11 -6 -2 -11 8 -11 22 0 14 5 26 10 26 6 0 10 -7 10 -15z m2456 -15 c8 0 14
-4 14 -10 0 -5 -13 -10 -30 -10 -21 0 -30 5 -30 16 0 11 5 14 16 10 9 -3 22
-6 30 -6z m-2729 -16 c2 -7 -8 -9 -27 -6 -16 2 -30 9 -30 14 0 13 53 6 57 -8z
m2273 -19 c-7 -8 -21 -15 -30 -15 -10 0 -21 -6 -23 -12 -4 -8 -6 -7 -6 3 -1 9
14 24 31 32 37 18 47 15 28 -8z m-2210 -2 c0 -11 -3 -14 -8 -7 -4 6 -14 14
-22 17 -10 4 -8 6 8 6 15 1 22 -5 22 -16z m2750 2 c0 -8 -6 -15 -14 -15 -8 0
-16 7 -20 15 -4 10 1 15 14 15 11 0 20 -7 20 -15z m-450 -5 c0 -5 -8 -10 -17
-10 -15 0 -16 2 -3 10 19 12 20 12 20 0z m790 0 c0 -5 -12 -10 -27 -9 l-28 1
25 8 c14 4 26 8 28 9 1 1 2 -3 2 -9z m-3190 -40 c0 -5 -2 -10 -4 -10 -3 0 -8
5 -11 10 -3 6 -1 10 4 10 6 0 11 -4 11 -10z m1137 4 c-3 -3 -12 -4 -19 -1 -8
3 -5 6 6 6 11 1 17 -2 13 -5z m923 -31 c0 -26 -3 -34 -9 -24 -5 8 -16 11 -25
8 -11 -5 -16 -1 -16 13 0 13 7 20 20 20 11 0 20 5 20 10 0 6 2 10 5 10 3 0 5
-17 5 -37z m65 8 c-6 -5 -25 10 -25 20 0 5 6 4 14 -3 8 -7 12 -15 11 -17z
m-705 -6 c0 -18 4 -23 15 -19 9 4 15 0 15 -9 0 -9 -9 -14 -24 -14 -20 0 -25 5
-28 33 -3 23 0 34 9 34 7 0 13 -11 13 -25z m150 -1 c0 -8 -4 -14 -10 -14 -5 0
-11 -19 -11 -42 -2 -30 -3 -35 -6 -15 -2 15 -9 27 -14 27 -5 0 -9 7 -9 15 0 8
-7 15 -15 15 -17 0 -21 19 -5 21 6 1 14 2 19 3 5 0 12 4 16 8 11 10 35 -2 35
-18z m-1400 0 c0 -14 -3 -14 -15 -4 -8 7 -15 14 -15 16 0 2 7 4 15 4 8 0 15
-7 15 -16z m1993 -1 c-3 -7 -6 -13 -8 -13 -2 0 -5 6 -8 13 -3 8 1 14 8 14 7 0
11 -6 8 -14z m-866 -9 c-3 -3 -12 -4 -19 -1 -8 3 -5 6 6 6 11 1 17 -2 13 -5z
m1114 -13 c-8 -5 -11 -16 -8 -25 5 -11 1 -16 -13 -16 -11 0 -20 5 -20 11 0 13
30 38 45 39 6 0 4 -4 -4 -9z m97 -3 c-2 -6 -19 -19 -36 -27 -17 -9 -32 -24
-32 -33 0 -10 -4 -18 -10 -18 -16 0 -12 28 7 50 10 11 25 20 35 20 10 0 18 5
18 10 0 6 5 10 11 10 6 0 9 -5 7 -12z m47 2 c3 -5 2 -10 -4 -10 -5 0 -13 5
-16 10 -3 6 -2 10 4 10 5 0 13 -4 16 -10z m-2407 -22 c-6 -18 -28 -21 -28 -4
0 9 7 16 16 16 9 0 14 -5 12 -12z m1982 -3 c0 -8 -7 -15 -15 -15 -16 0 -20 12
-8 23 11 12 23 8 23 -8z m497 -43 c4 -18 11 -22 27 -18 20 5 20 4 3 -8 -13
-10 -16 -21 -11 -42 4 -17 3 -26 -2 -21 -9 9 -11 14 -13 47 -1 16 -8 20 -35
20 -30 0 -34 -3 -29 -22 4 -20 3 -21 -7 -5 -16 25 -33 22 -19 -4 8 -17 18 -20
45 -17 20 2 34 0 34 -7 0 -11 35 -45 46 -45 4 0 4 11 2 25 -4 16 -1 25 8 25 7
0 20 3 29 6 15 6 15 4 4 -15 -11 -16 -11 -25 -2 -40 10 -17 8 -18 -29 -18 -31
0 -42 4 -45 18 -5 19 -15 24 -76 35 -32 5 -37 9 -31 27 6 18 3 19 -23 14 -23
-5 -29 -2 -29 12 0 15 7 17 43 13 29 -3 43 -1 43 7 0 8 -8 10 -20 6 -15 -5
-20 -2 -20 12 0 19 18 43 31 43 4 0 5 -8 2 -19 -7 -26 13 -35 38 -18 13 9 16
17 10 22 -6 3 -11 12 -11 18 1 17 30 -24 37 -51z m-2527 -12 c0 -16 30 -12 36
5 4 8 13 15 22 15 10 0 6 -8 -13 -24 -18 -15 -26 -30 -22 -40 4 -11 1 -16 -9
-16 -12 0 -15 -7 -12 -25 4 -19 1 -25 -11 -23 -10 2 -17 -5 -19 -19 -2 -16 2
-23 12 -23 9 0 16 -7 16 -15 0 -13 -3 -13 -20 -3 -17 11 -19 23 -18 115 1 100
2 103 20 83 10 -10 18 -24 18 -30z m1300 45 c0 -3 -14 -19 -31 -36 -22 -22
-34 -27 -39 -19 -13 22 1 49 29 53 14 2 29 5 34 6 4 0 7 -1 7 -4z m100 -26 c0
-11 6 -19 13 -19 8 0 8 -3 -2 -9 -18 -11 -16 -101 2 -113 8 -5 7 -8 -5 -8 -14
0 -39 29 -42 50 -2 9 -36 10 -36 0 0 -6 5 -10 11 -10 6 0 9 -7 6 -14 -4 -9 2
-17 14 -21 28 -9 18 -30 -14 -30 -28 -1 -36 10 -14 18 6 3 0 6 -15 6 -16 1
-27 -4 -25 -10 1 -6 -4 -14 -12 -17 -10 -3 -12 0 -8 12 5 12 0 16 -18 16 -14
0 -25 6 -26 13 0 6 -2 23 -3 37 -2 16 7 34 26 53 15 16 28 33 28 38 0 5 16 9
35 9 23 0 35 5 35 14 0 9 8 12 25 8 16 -3 25 -11 25 -23z m590 10 c0 -6 -7
-12 -15 -15 -17 -7 -21 -44 -5 -44 6 0 10 -7 10 -15 0 -9 -9 -15 -25 -15 -16
0 -25 6 -25 16 0 9 5 12 12 8 6 -4 8 -3 5 4 -9 13 -47 3 -54 -14 -4 -10 -8
-10 -18 -1 -10 10 -9 13 9 17 15 4 22 15 24 37 2 24 9 33 25 35 29 5 57 -2 57
-13z m-2054 -47 c-15 -15 -16 -14 -16 9 0 14 6 31 13 38 10 10 13 8 15 -10 2
-12 -3 -29 -12 -37z m2158 15 c6 -5 -1 -6 -17 -2 -21 4 -27 3 -21 -6 4 -8 3
-9 -5 -5 -11 7 -7 20 14 43 7 8 11 7 14 -5 2 -10 8 -21 15 -25z m766 39 c0 -3
-4 -8 -10 -11 -5 -3 -10 -1 -10 4 0 6 5 11 10 11 6 0 10 -2 10 -4z m-63 -22
c-3 -3 -12 -4 -19 -1 -8 3 -5 6 6 6 11 1 17 -2 13 -5z m188 -24 c-3 -5 -11
-10 -16 -10 -6 0 -7 5 -4 10 3 6 11 10 16 10 6 0 7 -4 4 -10z m-2635 -10 c0
-5 -9 -10 -20 -10 -11 0 -20 5 -20 10 0 6 9 10 20 10 11 0 20 -4 20 -10z m-30
-30 c-8 -5 -19 -10 -25 -10 -5 0 -3 5 5 10 8 5 20 10 25 10 6 0 3 -5 -5 -10z
m-224 -28 c-1 -11 8 -18 22 -20 17 -3 23 -9 19 -22 -3 -14 0 -16 17 -13 l21 5
-22 -16 c-12 -9 -28 -13 -37 -10 -9 4 -25 -5 -40 -21 -20 -21 -28 -25 -43 -16
-17 10 -17 10 1 11 13 0 17 5 14 18 -4 15 -1 18 18 14 21 -4 24 -1 24 27 0 38
-25 52 -45 25 -7 -11 -17 -16 -21 -11 -4 4 -2 7 4 7 7 0 12 10 12 23 0 20 4
23 29 19 19 -2 28 -9 27 -20z m2043 -6 c-3 -3 -11 5 -18 17 -13 21 -12 21 5 5
10 -10 16 -20 13 -22z m-2192 -36 c-4 -54 -2 -59 17 -62 13 -2 21 -10 21 -23
0 -16 -7 -20 -35 -21 -58 -2 -61 -3 -54 -16 5 -7 3 -8 -5 -4 -7 5 -20 1 -31
-9 -16 -15 -21 -15 -56 0 -61 25 -68 34 -40 56 13 11 31 19 40 19 9 0 16 5 16
11 0 5 -4 7 -10 4 -5 -3 -10 -1 -10 4 0 7 19 10 50 7 42 -3 48 -1 38 11 -6 8
-17 12 -25 9 -17 -7 -18 28 0 41 6 5 23 10 36 11 13 0 29 6 34 11 17 17 18 14
14 -49z m2233 38 c0 -16 -3 -19 -11 -11 -6 6 -8 16 -5 22 11 17 16 13 16 -11z
m-169 -9 c7 -15 8 -19 0 -15 -7 5 -9 -3 -4 -25 5 -25 3 -31 -8 -27 -9 3 -15
21 -16 46 -2 46 10 54 28 21z m-1603 -8 c3 -8 -1 -12 -9 -9 -7 2 -15 10 -17
17 -3 8 1 12 9 9 7 -2 15 -10 17 -17z m1462 4 c7 -8 8 -15 2 -15 -5 0 -15 7
-22 15 -7 8 -8 15 -2 15 5 0 15 -7 22 -15z m77 -20 c-6 -7 -15 -11 -19 -8 -14
8 -8 19 12 20 16 1 17 -1 7 -12z m-91 -42 c-7 -7 -26 7 -26 19 0 6 6 6 15 -2
9 -7 13 -15 11 -17z m414 23 c0 -3 -4 -8 -10 -11 -5 -3 -10 -1 -10 4 0 6 5 11
10 11 6 0 10 -2 10 -4z m-2107 -33 c-5 -13 -3 -15 12 -9 18 7 18 6 1 -13 -21
-23 -36 -19 -36 9 0 15 6 21 27 29 1 1 -1 -7 -4 -16z m1383 -1 c1 -7 0 -8 -3
-2 -9 18 -33 11 -33 -10 0 -11 -7 -20 -15 -20 -24 0 -30 4 -29 18 2 16 -6 15
-28 -5 -25 -22 -34 -10 -11 15 14 16 29 20 67 19 31 -1 50 -7 52 -15z m-1216
-2 c0 -5 -4 -10 -10 -10 -5 0 -10 5 -10 10 0 6 5 10 10 10 6 0 10 -4 10 -10z
m130 -11 c0 -8 -26 -19 -46 -19 -12 0 -12 3 -3 13 13 13 49 18 49 6z m-80 -19
c0 -11 -4 -20 -8 -20 -4 0 -8 9 -9 20 -1 11 2 20 8 20 5 0 9 -9 9 -20z m967
-7 c-8 -7 -37 9 -31 19 3 5 12 4 20 -3 8 -6 13 -14 11 -16z m777 -14 c-3 -5
-10 -7 -15 -3 -5 3 -7 10 -3 15 3 5 10 7 15 3 5 -3 7 -10 3 -15z m506 6 c0 -8
-4 -15 -10 -15 -5 0 -10 7 -10 15 0 8 5 15 10 15 6 0 10 -7 10 -15z m-2330 -5
c0 -5 -4 -10 -10 -10 -5 0 -10 5 -10 10 0 6 5 10 10 10 6 0 10 -4 10 -10z
m1464 -25 c-4 -8 -10 -15 -15 -15 -4 0 -6 7 -3 15 4 8 10 15 15 15 4 0 6 -7 3
-15z m-1454 -1 c0 -3 -5 -14 -10 -25 -11 -20 -40 -26 -40 -8 0 5 4 8 9 4 5 -3
12 4 16 15 6 18 25 29 25 14z m2047 -54 c1 -14 -4 -20 -18 -20 -21 0 -22 1
-13 24 9 23 29 20 31 -4z m310 -17 c-3 -10 -5 -4 -5 12 0 17 2 24 5 18 2 -7 2
-21 0 -30z m-947 1 c0 -8 -5 -12 -10 -9 -6 4 -8 11 -5 16 9 14 15 11 15 -7z
m654 -35 c-16 -17 -15 -20 3 -36 10 -10 12 -13 4 -8 -10 7 -16 6 -18 -2 -8
-23 -20 -13 -19 15 1 15 -2 32 -7 39 -6 8 1 11 22 11 30 -1 30 -2 15 -19z m56
-49 c0 -5 -5 -10 -11 -10 -5 0 -7 5 -4 10 3 6 8 10 11 10 2 0 4 -4 4 -10z
m-690 -14 c0 -9 9 -12 28 -10 15 2 19 1 10 -2 -19 -6 -25 -44 -8 -44 6 0 10
-5 10 -11 0 -5 -4 -8 -9 -4 -5 3 -11 -5 -13 -17 -2 -14 -14 -25 -38 -33 -23
-8 -30 -14 -20 -18 8 -3 -16 -5 -55 -5 -38 0 -62 2 -52 5 9 2 18 10 18 16 5
53 21 87 40 87 13 0 19 7 19 21 0 11 4 18 9 14 5 -3 12 -1 16 5 9 15 45 12 45
-4z m1110 -30 c0 -8 -8 -17 -19 -21 -28 -9 -18 -103 15 -128 17 -14 24 -29 24
-54 0 -29 -3 -33 -14 -24 -18 15 -46 4 -39 -16 4 -9 -1 -19 -10 -25 -26 -14
-20 -28 13 -28 20 0 30 -5 30 -15 0 -8 5 -15 10 -15 6 0 10 -11 10 -24 0 -19
4 -23 20 -19 11 3 20 13 20 22 0 13 2 13 9 2 5 -7 5 -27 1 -42 -7 -25 -6 -29
10 -29 13 0 17 -5 14 -15 -4 -8 -1 -15 5 -15 6 0 11 7 11 15 0 8 4 15 9 15 4
0 6 -10 4 -23 -5 -27 29 -93 46 -89 6 1 11 -3 11 -8 0 -17 -40 -90 -49 -90 -5
0 -23 -3 -40 -6 -23 -5 -31 -3 -31 8 0 7 -9 14 -20 14 -16 0 -20 -7 -19 -31 0
-28 1 -28 9 -7 15 35 23 26 17 -19 -5 -39 -4 -41 18 -36 24 4 24 4 8 -26 -22
-43 -124 -175 -167 -216 -29 -29 -36 -32 -36 -16 0 10 3 15 7 12 7 -7 33 11
33 23 0 4 -11 5 -24 3 -21 -4 -23 -2 -19 21 7 36 23 43 23 11 l0 -27 33 21
c17 11 31 28 31 36 -1 8 2 15 7 15 5 0 9 8 9 18 0 14 -2 15 -10 2 -10 -16 -11
-14 -13 35 -2 23 -7 31 -24 33 -27 4 -31 -13 -6 -22 15 -6 15 -8 3 -16 -19
-12 -31 -13 -28 -1 2 5 0 9 -4 10 -30 4 -38 -1 -38 -25 0 -17 -4 -23 -12 -18
-10 6 -10 4 0 -7 6 -7 12 -28 12 -47 0 -33 -1 -34 -30 -29 -23 5 -28 3 -23 -8
4 -11 1 -13 -11 -9 -14 5 -16 2 -10 -20 4 -19 2 -26 -9 -26 -8 0 -18 -7 -21
-16 -5 -12 -16 -15 -41 -12 -22 2 -36 -1 -39 -9 -3 -7 -16 -13 -28 -14 -22 -1
-22 -1 2 -9 23 -7 12 -15 -18 -11 -7 1 -15 -5 -18 -14 -8 -20 -58 -20 -75 1
-12 14 -14 12 -24 -17 -6 -19 -21 -38 -33 -44 -16 -7 -20 -15 -16 -32 7 -27
-10 -31 -25 -5 -7 11 -13 13 -18 6 -5 -6 -19 2 -37 23 l-29 34 27 -7 c20 -5
26 -2 26 10 0 9 7 16 15 16 8 0 14 3 12 8 -1 4 3 9 8 11 14 6 31 24 38 41 4 8
4 -2 1 -22 -4 -23 -2 -38 4 -38 27 0 21 152 -9 183 -24 27 -47 16 -43 -20 2
-15 1 -20 -2 -10 -3 9 -14 17 -25 17 -11 0 -19 7 -19 18 -1 13 -4 11 -15 -8
-14 -24 -14 -22 -15 36 0 48 4 63 16 68 23 9 32 -3 14 -15 -12 -9 -12 -10 3
-5 11 3 17 0 17 -10 0 -8 6 -14 13 -13 25 3 36 -2 40 -18 4 -14 5 -14 6 3 1
15 -8 25 -29 34 -32 13 -40 30 -15 30 8 0 15 -4 15 -10 0 -20 37 -9 50 15 17
32 28 32 26 0 0 -16 -7 -25 -17 -25 -12 0 -15 -9 -13 -37 1 -29 6 -37 18 -35
13 2 16 -7 16 -52 0 -30 4 -57 8 -60 5 -3 7 24 5 60 -4 52 -1 70 13 85 15 17
15 19 0 25 -11 4 -15 16 -14 35 1 18 7 28 14 25 7 -3 14 8 16 25 4 25 2 28
-14 23 -12 -4 -18 0 -18 11 0 11 6 15 18 11 14 -5 18 0 17 21 0 24 5 29 29 31
32 4 51 -15 34 -35 -6 -7 -6 -13 -1 -13 5 0 17 9 26 21 18 20 17 21 -3 26 -12
3 -19 11 -16 19 7 19 -34 14 -63 -8 -15 -12 -28 -15 -34 -9 -13 13 1 31 18 25
9 -4 18 1 21 11 5 13 14 15 36 11 26 -5 29 -3 23 14 -7 22 -5 23 20 14 13 -5
14 -8 3 -15 -10 -6 -8 -9 7 -9 11 0 38 -16 59 -35 33 -29 37 -37 26 -50 -16
-19 -10 -19 26 0 16 8 25 15 20 15 -5 0 -7 2 -4 5 3 3 18 -1 34 -10 29 -15 29
-15 32 15 2 19 9 30 18 30 23 0 12 23 -13 26 -17 3 -19 -1 -15 -23 4 -24 3
-25 -21 -19 -14 3 -29 2 -32 -4 -11 -17 -37 -11 -33 7 3 19 35 24 56 9 13 -9
16 3 4 19 -9 13 -35 18 -27 5 3 -5 2 -10 -4 -10 -17 0 -22 17 -8 28 13 12 55
11 74 -1 6 -4 10 0 9 10 0 9 5 18 13 21 9 3 11 -1 7 -16 -4 -11 -2 -23 3 -26
12 -8 21 5 23 37 2 26 9 26 41 -1 9 -8 20 -12 24 -9 3 4 1 7 -5 7 -7 0 -12 17
-12 45 0 48 0 48 -65 45 -45 -2 -71 -18 -56 -33 7 -7 15 -6 26 3 12 10 18 10
30 0 12 -10 15 -10 15 4 0 9 4 16 9 16 11 0 22 -26 14 -34 -11 -10 -53 -7 -53
4 0 6 -6 5 -14 -2 -12 -11 -10 -14 13 -19 22 -6 23 -7 4 -8 -12 0 -25 -6 -28
-11 -9 -15 -27 -1 -21 16 3 8 -1 14 -8 14 -8 0 -21 3 -30 6 -13 5 -15 1 -10
-25 5 -23 3 -31 -8 -31 -10 0 -15 11 -16 30 0 17 -4 39 -7 50 -7 23 10 28 18
6 3 -8 15 -14 25 -13 23 1 19 21 -11 55 -12 13 -16 22 -8 22 7 0 10 4 7 9 -10
16 6 42 22 36 24 -9 52 24 53 64 1 31 2 32 8 11 3 -14 14 -26 24 -26 13 -1 17
6 16 30 0 28 -17 83 -18 62 -1 -5 -7 -3 -14 3 -8 6 -17 8 -20 4 -13 -12 -7
-23 13 -23 11 0 20 -4 20 -9 0 -12 -33 -9 -43 4 -5 6 -6 -7 -3 -28 4 -32 3
-35 -10 -23 -8 8 -14 19 -14 25 0 6 -4 11 -9 11 -4 0 -8 -13 -7 -28 1 -18 6
-29 15 -28 8 1 16 -5 19 -13 3 -10 -2 -11 -18 -6 -15 5 -20 4 -16 -4 4 -6 2
-11 -3 -11 -6 0 -11 5 -11 10 0 6 -4 10 -10 10 -5 0 -7 -7 -4 -15 4 -8 1 -15
-5 -15 -6 0 -11 7 -11 16 0 11 -6 14 -20 9 -14 -5 -20 -2 -20 9 0 20 -29 21
-36 1 -4 -8 -13 -15 -21 -15 -13 0 -13 3 -3 15 11 13 10 14 -4 9 -10 -4 -16
-1 -17 10 -3 31 -4 35 -27 65 -13 18 -27 29 -33 26 -5 -4 -10 6 -11 22 0 15
-4 6 -7 -22 -5 -38 -10 -51 -25 -53 -25 -5 -35 14 -37 68 -1 25 -4 35 -6 23
-6 -31 -52 -28 -64 4 -5 13 -15 24 -24 24 -28 3 -33 4 -41 12 -14 13 36 7 59
-8 22 -14 27 -12 78 20 55 35 113 47 103 22 -3 -8 2 -20 11 -27 8 -7 15 -20
15 -30 0 -10 7 -20 15 -24 8 -3 15 -12 15 -21 0 -13 13 -20 23 -12 2 1 11 -4
20 -12 16 -12 17 -8 17 42 0 47 -3 55 -21 60 -16 4 -20 12 -17 34 3 25 9 30
56 42 53 14 81 11 160 -20 13 -5 22 -5 22 1 0 5 10 18 21 29 l21 20 -21 -6
c-30 -8 -26 14 7 31 35 19 62 20 62 2z m-880 -10 c0 -3 -4 -8 -10 -11 -5 -3
-10 -1 -10 4 0 6 5 11 10 11 6 0 10 -2 10 -4z m433 -23 c-7 -2 -19 -2 -25 0
-7 3 -2 5 12 5 14 0 19 -2 13 -5z m-46 -9 c-3 -3 -12 -4 -19 -1 -8 3 -5 6 6 6
11 1 17 -2 13 -5z m579 -25 c3 -6 2 -15 -2 -19 -12 -12 -38 5 -30 19 9 14 23
14 32 0z m-1016 -19 c0 -17 -7 -20 -47 -20 -49 0 -56 8 -10 12 15 1 27 8 27
15 0 7 7 13 15 13 8 0 15 -9 15 -20z m110 -114 c0 -36 -4 -45 -21 -49 -11 -3
-23 -15 -26 -26 -8 -29 -21 -26 -26 7 -2 16 -5 9 -6 -20 -1 -44 -3 -48 -26
-48 -29 0 -39 27 -34 94 l4 44 -35 -14 c-19 -8 -36 -19 -38 -24 -5 -14 -46
-12 -60 2 -13 13 -17 57 -4 59 4 1 66 5 137 8 72 4 131 8 133 9 1 1 2 -18 2
-42z m138 22 c7 -7 13 -30 13 -52 1 -23 3 -34 5 -26 3 8 18 23 34 32 l30 17 0
-50 c0 -44 -3 -51 -27 -60 -20 -7 -28 -6 -35 3 -5 8 -8 2 -8 -19 0 -39 -10
-46 -67 -46 -42 0 -74 20 -54 33 13 9 22 58 11 65 -5 3 -10 12 -10 20 0 10 7
12 30 5 l30 -9 0 44 c0 38 7 51 31 54 3 1 10 -4 17 -11z m-993 -10 c14 -6 25
-14 25 -18 0 -4 10 -6 22 -6 15 1 27 -8 36 -26 7 -16 21 -28 31 -28 14 0 17
-6 13 -31 -3 -21 -9 -29 -21 -27 -8 2 -24 -5 -34 -15 -10 -10 -25 -16 -32 -13
-8 3 -17 1 -20 -4 -4 -6 -15 -10 -26 -10 -14 0 -19 -7 -19 -29 0 -31 -14 -46
-45 -46 -14 0 -21 8 -23 26 -2 16 -12 31 -28 38 -13 6 -27 18 -30 26 -4 8 -9
13 -13 11 -30 -19 -55 110 -26 134 30 25 45 4 45 -59 0 -54 2 -59 20 -54 28 8
50 -14 51 -51 0 -17 3 -24 6 -16 2 8 11 29 18 45 13 30 10 70 -10 118 -17 41
11 57 60 35z m411 4 c6 -4 14 -20 18 -35 4 -16 16 -32 29 -36 27 -11 37 -5 37
19 0 10 7 20 15 24 24 9 45 -22 45 -65 0 -42 17 -69 44 -69 10 0 13 -6 9 -17
-4 -11 -3 -14 5 -9 7 4 21 1 31 -6 18 -13 17 -14 -17 -15 -20 -1 -50 6 -67 15
-16 9 -39 17 -50 17 -29 2 -65 15 -65 24 0 23 -58 69 -92 74 l-38 6 0 -85 c0
-66 -3 -86 -15 -90 -23 -9 -45 15 -45 47 0 23 -5 29 -21 29 -11 0 -29 -5 -40
-10 -16 -9 -19 -7 -19 8 0 11 16 27 40 41 36 20 40 26 40 60 0 38 0 38 -55 50
-30 7 -53 17 -50 22 7 11 245 12 261 1z m1434 -36 c0 -11 -19 -15 -25 -6 -3 5
1 10 9 10 9 0 16 -2 16 -4z m-293 -78 c-3 -8 -6 -5 -6 6 -1 11 2 17 5 13 3 -3
4 -12 1 -19z m163 -17 c16 -30 12 -36 -10 -16 -21 19 -26 35 -10 35 5 0 14 -9
20 -19z m-850 -62 c0 -14 -14 -17 -37 -8 -33 12 -28 26 7 21 17 -2 30 -8 30
-13z m-420 -69 c30 -46 32 -48 75 -45 38 3 45 0 45 -15 0 -28 22 -41 44 -24
28 20 31 18 31 -21 0 -30 -3 -35 -23 -35 -13 0 -33 -5 -44 -11 -17 -9 -18 -13
-7 -21 10 -7 7 -8 -11 -4 -14 3 -36 6 -50 6 -20 0 -22 2 -10 10 11 7 11 10 2
10 -9 0 -10 5 -3 19 12 22 -16 61 -44 61 -13 0 -16 6 -11 25 6 23 4 25 -32 25
-24 0 -45 7 -55 18 -13 15 -14 21 -2 50 14 32 15 33 39 17 14 -9 39 -38 56
-65z m749 61 c16 -10 7 -45 -11 -39 -12 4 -22 48 -10 48 4 0 13 -4 21 -9z
m201 -26 c7 -8 8 -15 2 -15 -5 0 -15 7 -22 15 -7 8 -8 15 -2 15 5 0 15 -7 22
-15z m-1254 -61 c-3 -8 -10 -14 -16 -14 -10 0 -6 36 8 70 8 19 16 -36 8 -56z
m-1216 -34 c0 -5 -5 -10 -11 -10 -5 0 -7 5 -4 10 3 6 8 10 11 10 2 0 4 -4 4
-10z m170 -17 c1 -26 26 -58 33 -41 4 8 6 7 6 -4 1 -10 -6 -18 -14 -18 -8 0
-15 7 -15 15 0 8 -4 15 -9 15 -23 0 -1 -36 27 -45 17 -6 34 -14 37 -17 10 -9
-4 -48 -17 -48 -5 0 -8 7 -4 15 3 9 0 15 -10 15 -25 0 -76 63 -60 72 8 4 11
18 8 33 -2 15 0 25 7 25 6 0 11 -8 11 -17z m957 -48 l10 -55 -49 0 c-45 0 -48
1 -34 16 9 8 16 19 16 24 0 5 9 12 20 15 24 7 27 25 5 25 -13 0 -14 3 -3 15
20 23 24 19 35 -40z m-607 30 c0 -2 -7 -5 -15 -9 -9 -3 -15 0 -15 9 0 9 6 12
15 9 8 -4 15 -7 15 -9z m1538 0 c9 1 11 0 5 -2 -7 -3 -13 -9 -13 -14 0 -5 -4
-9 -10 -9 -5 0 -10 10 -9 23 0 12 3 17 5 11 3 -7 13 -11 22 -9z m262 5 c0 -5
-4 -10 -10 -10 -5 0 -10 5 -10 10 0 6 5 10 10 10 6 0 10 -4 10 -10z m-30 -22
c11 3 10 -1 -4 -17 -25 -27 -40 -22 -43 13 -2 26 0 27 15 13 9 -8 24 -12 32
-9z m186 6 c-3 -8 1 -14 9 -14 17 0 20 -35 5 -45 -16 -10 -42 16 -37 36 3 12
0 16 -9 12 -8 -3 -14 1 -14 8 0 8 11 15 26 15 18 2 24 -2 20 -12z m-2075 -21
c19 -21 20 -25 6 -20 -12 5 -27 -2 -44 -19 -31 -31 -41 -27 -12 5 12 13 19 30
16 42 -7 26 5 24 34 -8z m-141 -23 c0 -13 -5 -18 -15 -14 -12 5 -13 10 -4 20
15 19 19 18 19 -6z m-137 -29 c10 -10 7 -12 -13 -9 -18 2 -24 -1 -22 -12 3
-12 0 -12 -14 2 -9 9 -13 21 -10 27 9 13 42 9 59 -8z m177 -37 c0 -14 -4 -23
-10 -19 -5 3 -10 15 -10 26 0 10 5 19 10 19 6 0 10 -12 10 -26z m1773 8 c4 9
6 7 6 -4 1 -9 6 -18 13 -20 8 -3 6 -6 -4 -10 -10 -4 -26 5 -44 24 l-29 31 27
-17 c20 -13 27 -14 31 -4z m-1823 -42 c0 -5 -4 -10 -10 -10 -5 0 -10 5 -10 10
0 6 5 10 10 10 6 0 10 -4 10 -10z m1530 -65 c0 -28 -15 -34 -24 -9 -10 25 -7
34 9 34 9 0 15 -9 15 -25z m-1610 -10 c7 -8 8 -15 2 -15 -5 0 -15 7 -22 15 -7
8 -8 15 -2 15 5 0 15 -7 22 -15z m2463 -65 c-7 -28 -13 -25 -13 6 0 14 4 23 9
20 5 -3 7 -15 4 -26z m-2493 -20 c0 -16 -3 -30 -7 -30 -5 0 -8 14 -8 30 0 17
3 30 8 30 4 0 7 -13 7 -30z m328 18 c15 -15 16 -28 2 -28 -5 0 -10 6 -10 14 0
8 -8 17 -17 19 -14 4 -14 5 -2 6 8 0 20 -4 27 -11z m2215 -18 c4 -16 0 -20
-16 -19 -12 0 -17 3 -10 5 7 3 9 12 6 20 -3 8 -1 14 5 14 5 0 12 -9 15 -20z
m-2364 -76 c37 -2 39 -4 13 -14 -12 -5 -29 -7 -37 -4 -8 4 -15 1 -15 -6 0 -6
-4 -8 -10 -5 -5 3 -10 18 -10 32 0 22 2 24 16 12 9 -7 28 -14 43 -15z m1059
-26 c16 -16 15 -53 -2 -67 -8 -7 -27 -11 -43 -9 -22 2 -29 9 -31 31 -2 16 -1
35 2 43 7 17 57 19 74 2z m1142 -67 c0 -22 -29 -36 -43 -22 -7 7 -6 15 3 26
17 21 40 19 40 -4z m30 -26 c-25 -26 -40 -32 -40 -15 0 6 6 10 14 10 7 0 19 7
26 15 7 8 15 15 18 15 3 0 -5 -11 -18 -25z m-240 -89 c0 -8 5 -18 12 -22 8 -5
9 -2 5 10 -5 12 -3 16 5 13 7 -2 13 -12 13 -23 0 -12 7 -18 19 -17 15 1 16 -1
5 -11 -25 -23 -93 -60 -85 -47 5 7 2 24 -5 38 -11 20 -11 26 1 33 8 5 11 12 7
16 -3 4 -13 1 -22 -6 -18 -15 -20 1 -3 18 17 17 48 15 48 -2z m-873 -48 c-3
-8 -6 -5 -6 6 -1 11 2 17 5 13 3 -3 4 -12 1 -19z m506 1 c-6 -6 -9 -18 -6 -25
3 -8 -1 -14 -11 -14 -9 0 -16 -4 -16 -10 0 -5 -7 -7 -15 -4 -8 4 -15 10 -15
15 0 5 7 9 15 9 8 0 15 9 15 20 0 14 7 20 22 20 16 0 19 -3 11 -11z m-233 -14
c0 -8 -34 -45 -42 -45 -14 0 -8 23 10 36 17 14 32 18 32 9z m-39 -77 l21 -33
-6 32 c-5 30 -3 33 19 31 23 -2 37 -18 16 -18 -5 0 -11 -10 -13 -22 -2 -17 -9
-22 -23 -20 -11 2 -29 4 -40 6 -11 2 -23 -4 -27 -13 -6 -14 -7 -14 -7 1 -1 15
-5 16 -26 8 -26 -10 -26 -10 -8 14 13 18 22 22 35 15 13 -7 18 -4 23 11 8 27
12 26 36 -12z m-306 -28 c3 -5 1 -10 -4 -10 -6 0 -11 5 -11 10 0 6 2 10 4 10
3 0 8 -4 11 -10z m571 -6 c-4 -10 1 -22 11 -30 17 -13 17 -13 0 -14 -10 0 -20
7 -24 16 -3 8 -12 13 -19 10 -8 -3 -14 -1 -14 5 0 5 10 14 23 19 30 12 30 12
23 -6z m-304 -66 c-6 -6 -15 -8 -19 -4 -4 4 -1 11 7 16 19 12 27 3 12 -12z
m398 13 c-8 -5 -26 -11 -40 -15 -21 -5 -20 -3 5 9 32 15 60 20 35 6z m-500
-26 c-7 -9 -15 -13 -17 -11 -7 7 7 26 19 26 6 0 6 -6 -2 -15z m333 -32 c-7 -2
-19 -2 -25 0 -7 3 -2 5 12 5 14 0 19 -2 13 -5z m-150 -15 c-2 -5 4 -8 14 -9
29 -2 -27 -17 -62 -17 -16 0 -25 2 -18 4 7 3 10 11 7 18 -3 9 6 12 30 12 19
-1 32 -4 29 -8z m-435 -27 c12 -14 9 -16 -24 -19 -55 -5 -68 3 -47 28 19 22
49 19 71 -9z m312 -5 c0 -2 -13 -6 -30 -8 -16 -3 -30 -1 -30 4 0 4 14 8 30 8
17 0 30 -2 30 -4z m-73 -12 c-3 -3 -12 -4 -19 -1 -8 3 -5 6 6 6 11 1 17 -2 13
-5z"/>
<path d="M4200 4370 c0 -5 9 -10 19 -10 11 0 23 5 26 10 4 6 -5 10 -19 10 -14
0 -26 -4 -26 -10z"/>
<path d="M4470 4280 c0 -5 5 -10 10 -10 6 0 10 5 10 10 0 6 -4 10 -10 10 -5 0
-10 -4 -10 -10z"/>
<path d="M1720 3870 c0 -5 5 -10 11 -10 5 0 7 5 4 10 -3 6 -8 10 -11 10 -2 0
-4 -4 -4 -10z"/>
<path d="M3060 3910 c0 -5 7 -10 15 -10 10 0 15 -10 15 -31 0 -27 2 -30 15
-19 12 10 13 16 3 28 -8 10 -8 13 -2 9 7 -4 17 0 23 7 8 9 8 17 2 20 -5 3 -11
0 -14 -6 -3 -10 -9 -11 -26 0 -25 15 -31 15 -31 2z"/>
<path d="M1640 3810 c0 -5 7 -10 15 -10 8 0 15 5 15 10 0 6 -7 10 -15 10 -8 0
-15 -4 -15 -10z"/>
<path d="M1660 3716 c0 -9 7 -16 16 -16 9 0 14 5 12 12 -6 18 -28 21 -28 4z"/>
<path d="M3450 3425 c0 -8 2 -15 4 -15 2 0 6 7 10 15 3 8 1 15 -4 15 -6 0 -10
-7 -10 -15z"/>
<path d="M4361 3267 c-1 -52 -6 -86 -17 -102 -15 -23 -14 -24 5 -22 21 1 24 9
22 62 -2 23 0 27 8 15 9 -13 12 -13 28 3 14 14 14 17 3 17 -9 1 -4 7 10 15 22
13 23 14 5 15 -28 1 -52 22 -58 50 -2 14 -5 -10 -6 -53z"/>
<path d="M4380 3067 c0 -13 23 -67 28 -67 16 0 8 48 -9 58 -11 7 -19 11 -19 9z"/>
<path d="M4496 3029 c-18 -17 -18 -19 -2 -19 9 0 19 7 23 15 8 23 0 25 -21 4z"/>
<path d="M4665 2850 c3 -5 8 -10 11 -10 2 0 4 5 4 10 0 6 -5 10 -11 10 -5 0
-7 -4 -4 -10z"/>
<path d="M4284 2780 c0 -11 5 -19 11 -17 5 2 10 10 10 17 0 7 -5 15 -10 17 -6
2 -11 -6 -11 -17z"/>
<path d="M4423 2763 c-7 -3 -13 -11 -13 -19 0 -8 -4 -14 -10 -14 -5 0 -10 -7
-10 -15 0 -19 16 -20 27 -1 4 7 13 15 19 17 6 2 9 11 5 20 -3 9 -12 14 -18 12z"/>
<path d="M4593 2753 c-7 -2 -12 -19 -12 -36 2 -27 2 -28 6 -7 2 14 12 31 21
38 16 12 8 15 -15 5z"/>
<path d="M4470 2730 c0 -5 5 -10 11 -10 5 0 7 5 4 10 -3 6 -8 10 -11 10 -2 0
-4 -4 -4 -10z"/>
<path d="M4230 2680 c0 -16 5 -30 10 -30 6 0 10 14 10 30 0 17 -4 30 -10 30
-5 0 -10 -13 -10 -30z"/>
<path d="M4280 2650 c0 -5 5 -10 10 -10 6 0 10 5 10 10 0 6 -4 10 -10 10 -5 0
-10 -4 -10 -10z"/>
<path d="M4234 2622 c11 -12 27 -22 37 -22 20 0 35 17 24 28 -3 3 -10 0 -14
-7 -7 -11 -14 -10 -37 5 l-29 18 19 -22z"/>
<path d="M4335 2600 c-3 -5 -2 -10 4 -10 5 0 13 5 16 10 3 6 2 10 -4 10 -5 0
-13 -4 -16 -10z"/>
<path d="M4130 2574 c0 -14 3 -14 15 -4 8 7 15 14 15 16 0 2 -7 4 -15 4 -8 0
-15 -7 -15 -16z"/>
<path d="M4205 2570 c3 -5 0 -10 -8 -10 -8 0 -19 -6 -25 -13 -9 -10 -3 -13 28
-12 48 1 59 11 34 30 -22 17 -38 20 -29 5z"/>
<path d="M4255 2570 c3 -5 14 -10 23 -10 15 0 15 2 2 10 -20 13 -33 13 -25 0z"/>
<path d="M4160 2409 c0 -5 5 -7 10 -4 6 3 10 8 10 11 0 2 -4 4 -10 4 -5 0 -10
-5 -10 -11z"/>
<path d="M3851 3114 c0 -11 3 -14 6 -6 3 7 2 16 -1 19 -3 4 -6 -2 -5 -13z"/>
<path d="M3426 2945 c-3 -8 -3 -15 0 -15 3 0 12 7 20 15 13 13 13 15 1 15 -8
0 -17 -7 -21 -15z"/>
<path d="M4443 4803 c4 -6 26 -26 49 -45 23 -18 39 -28 35 -21 -4 6 -26 26
-49 45 -23 18 -39 28 -35 21z"/>
<path d="M4560 4707 c0 -4 20 -29 43 -55 58 -62 98 -123 90 -136 -3 -6 -2 -8
2 -3 9 8 52 -52 91 -125 13 -27 27 -48 30 -48 11 0 -80 160 -126 222 -57 75
-129 156 -130 145z"/>
<path d="M4415 4669 c-11 -17 -2 -18 19 -3 17 12 17 14 4 14 -9 0 -20 -5 -23
-11z"/>
<path d="M4290 4590 c0 -5 5 -10 10 -10 6 0 10 5 10 10 0 6 -4 10 -10 10 -5 0
-10 -4 -10 -10z"/>
<path d="M1739 4573 c-13 -16 -12 -17 4 -4 9 7 17 15 17 17 0 8 -8 3 -21 -13z"/>
<path d="M3548 4533 c7 -3 16 -2 19 1 4 3 -2 6 -13 5 -11 0 -14 -3 -6 -6z"/>
<path d="M4650 4530 c0 -5 7 -10 15 -10 8 0 15 5 15 10 0 6 -7 10 -15 10 -8 0
-15 -4 -15 -10z"/>
<path d="M3592 4517 c8 -9 27 -12 53 -9 36 5 37 6 15 13 -14 4 -38 7 -53 8
-24 1 -26 -1 -15 -12z"/>
<path d="M3351 4412 c-15 -36 -13 -45 8 -33 7 5 11 21 9 37 l-3 29 -14 -33z"/>
<path d="M4682 4378 c5 -15 28 -23 28 -10 0 5 -7 13 -16 16 -10 4 -14 1 -12
-6z"/>
<path d="M1950 4332 c0 -5 7 -13 16 -16 10 -4 14 -1 12 6 -5 15 -28 23 -28 10z"/>
<path d="M2140 4307 c0 -3 4 -17 10 -32 8 -22 7 -27 -13 -35 -16 -6 -17 -9 -5
-9 9 -1 20 -10 23 -21 3 -11 11 -20 16 -20 12 0 11 7 -1 30 -6 11 -6 21 -1 24
12 8 3 42 -15 57 -8 6 -14 9 -14 6z"/>
<path d="M2870 4300 c-17 -11 -8 -23 14 -18 9 2 12 8 8 15 -5 8 -13 9 -22 3z"/>
<path d="M4850 4238 c0 -9 5 -20 10 -23 13 -8 13 5 0 25 -8 13 -10 13 -10 -2z"/>
<path d="M2230 4199 c-15 -17 -31 -26 -41 -23 -14 4 -16 -2 -12 -43 3 -26 9
-52 14 -57 12 -13 11 -36 -1 -36 -5 0 -10 7 -10 15 0 10 -10 15 -26 15 -23 0
-26 -3 -22 -30 4 -26 2 -28 -11 -18 -9 7 -18 14 -20 15 -2 2 3 11 11 20 21 24
32 63 19 63 -6 0 -11 -4 -11 -10 0 -5 -9 -10 -20 -10 -19 0 -20 -5 -17 -55 2
-30 0 -55 -5 -55 -5 0 -7 -4 -4 -9 9 -14 56 -10 56 5 0 8 7 14 15 14 8 0 15 7
15 16 0 10 6 14 15 10 18 -6 64 34 58 52 -3 6 4 15 14 20 17 7 31 33 16 31 -5
-1 -18 -1 -30 0 -32 1 -31 37 1 43 19 4 26 -1 37 -29 12 -32 21 -37 76 -47 4
0 8 10 8 24 0 22 -5 25 -37 28 -29 2 -38 8 -38 22 0 10 -6 21 -12 24 -10 5
-10 7 0 12 12 6 7 25 -6 23 -4 0 -18 -14 -32 -30z m0 -98 c0 -5 -7 -11 -15
-15 -15 -5 -20 5 -8 17 9 10 23 9 23 -2z"/>
<path d="M2015 4180 c-10 -11 -15 -23 -12 -27 7 -6 36 25 37 40 0 11 -6 8 -25
-13z"/>
<path d="M2070 4186 c0 -9 7 -16 16 -16 9 0 14 5 12 12 -6 18 -28 21 -28 4z"/>
<path d="M2370 4129 c0 -5 6 -9 13 -9 9 0 8 -3 -2 -9 -18 -12 0 -21 28 -14 30
8 22 35 -11 39 -16 1 -28 -2 -28 -7z"/>
<path d="M3020 4086 c0 -14 5 -26 10 -26 6 0 10 9 10 19 0 11 -4 23 -10 26 -6
4 -10 -5 -10 -19z"/>
<path d="M2280 4075 c0 -8 9 -15 20 -15 24 0 27 15 4 24 -22 9 -24 8 -24 -9z"/>
<path d="M2334 4066 c5 -30 -17 -47 -61 -45 -26 1 -25 2 12 14 l40 13 -43 1
c-29 1 -44 -4 -48 -14 -4 -8 -13 -15 -21 -15 -8 0 -11 -5 -7 -11 4 -6 27 -9
60 -6 30 2 55 0 56 -5 2 -6 18 2 35 16 19 16 34 22 38 16 3 -5 2 -10 -4 -10
-5 0 -17 -8 -27 -17 -9 -10 -31 -16 -50 -16 -27 1 -34 -3 -34 -18 0 -14 7 -19
25 -19 15 0 25 -6 25 -14 0 -19 50 -15 51 4 1 14 0 25 -4 55 -1 6 6 9 16 7 12
-2 17 4 18 20 0 13 3 17 6 11 2 -7 11 -13 19 -13 8 0 14 -9 14 -20 0 -20 17
-25 83 -20 17 1 29 -4 33 -14 3 -9 14 -16 23 -16 14 0 14 2 1 10 -8 5 -15 15
-15 22 0 8 -11 12 -28 10 -15 -1 -36 2 -47 8 -15 8 -20 8 -21 -2 0 -7 -4 -3
-9 10 -5 12 -16 25 -25 28 -8 4 -16 16 -16 28 -1 13 -3 15 -5 6 -3 -8 -20 -20
-39 -26 -28 -9 -35 -8 -40 4 -3 10 0 12 10 8 8 -3 15 -1 15 3 0 5 9 7 20 4 12
-3 20 0 20 7 0 7 -11 10 -28 9 -15 -2 -33 0 -40 5 -9 6 -11 1 -8 -18z m11 -46
c-3 -5 -11 -10 -16 -10 -6 0 -7 5 -4 10 3 6 11 10 16 10 6 0 7 -4 4 -10z m0
-50 c-17 -7 -17 -9 -2 -9 9 -1 17 -5 17 -11 0 -14 -5 -13 -39 8 l-30 18 37 1
c28 0 32 -1 17 -7z"/>
<path d="M2440 4064 c0 -8 5 -12 10 -9 6 4 8 11 5 16 -9 14 -15 11 -15 -7z"/>
<path d="M2015 4040 c3 -5 10 -10 16 -10 5 0 9 5 9 10 0 6 -7 10 -16 10 -8 0
-12 -4 -9 -10z"/>
<path d="M2842 4021 c2 -17 1 -28 -3 -25 -4 2 -10 0 -14 -6 -3 -5 -24 -10 -46
-10 -29 0 -39 -4 -39 -16 0 -10 6 -14 15 -10 11 4 15 -2 15 -20 0 -13 -7 -27
-15 -30 -8 -4 -15 -14 -15 -24 0 -10 -6 -21 -12 -23 -8 -4 -7 -6 3 -6 9 -1 19
6 23 14 3 8 14 15 25 15 14 0 18 -5 14 -20 -3 -12 0 -20 7 -20 6 0 14 9 17 20
3 11 11 20 19 20 7 0 16 5 19 10 4 7 -8 8 -34 4 -28 -4 -41 -3 -41 5 0 7 9 9
23 6 20 -5 22 -2 22 32 0 29 4 38 17 37 13 -1 17 7 16 37 0 22 -5 39 -10 39
-6 0 -8 -13 -6 -29z m-45 -93 c-3 -8 -6 -5 -6 6 -1 11 2 17 5 13 3 -3 4 -12 1
-19z"/>
<path d="M2575 4009 c7 -11 35 -12 35 -1 0 4 -9 8 -20 9 -11 1 -18 -2 -15 -8z"/>
<path d="M2689 4008 c-10 -11 -21 -13 -36 -7 -13 5 -25 4 -28 -1 -11 -18 3
-27 34 -22 22 3 30 0 34 -15 4 -15 5 -15 6 -1 0 9 8 18 17 20 13 3 13 6 1 22
-12 17 -15 17 -28 4z"/>
<path d="M620 3970 c-29 -53 -52 -181 -57 -310 -4 -112 -1 -152 16 -235 31
-150 84 -281 164 -400 24 -36 49 -94 64 -145 29 -101 85 -234 160 -384 30 -59
53 -110 51 -111 -2 -2 -24 11 -48 29 -29 21 -60 58 -84 99 -73 124 -211 254
-356 335 -104 58 -340 108 -340 72 0 -21 41 -90 100 -168 115 -153 296 -269
493 -317 56 -14 110 -25 120 -25 29 0 183 -131 227 -194 104 -148 214 -275
345 -394 39 -36 72 -69 74 -74 6 -18 -42 3 -103 45 -75 51 -203 110 -286 133
-48 14 -101 19 -205 19 -122 0 -149 -3 -210 -24 -85 -29 -125 -48 -125 -61 0
-15 161 -109 240 -139 194 -75 422 -81 598 -15 40 15 48 15 105 -1 35 -10 84
-33 112 -54 198 -148 524 -300 784 -366 103 -26 262 -55 299 -55 24 0 41 25
25 41 -5 5 -67 20 -138 33 -237 44 -474 123 -648 216 -131 70 -131 71 -128
270 4 264 -39 405 -187 625 -73 109 -83 103 -101 -59 -14 -124 1 -261 42 -380
38 -107 79 -180 155 -272 29 -36 52 -69 50 -75 -3 -10 -108 57 -193 124 -178
139 -413 398 -447 494 -24 68 -22 92 12 154 86 155 132 399 111 593 -12 121
-38 257 -52 270 -29 30 -137 -161 -175 -311 -43 -171 -27 -401 41 -571 9 -22
15 -49 13 -59 -10 -48 -183 274 -249 464 l-39 111 0 259 c0 356 -26 503 -124
701 -69 140 -83 155 -106 112z"/>
<path d="M2425 3969 c-10 -15 1 -23 20 -15 9 3 13 10 10 16 -8 13 -22 13 -30
-1z"/>
<path d="M2227 3934 c3 -8 12 -13 20 -10 8 3 21 6 29 6 9 0 12 5 9 10 -3 6
-19 10 -35 10 -23 0 -28 -4 -23 -16z"/>
<path d="M2210 3901 c0 -5 7 -14 15 -21 24 -20 18 -27 -20 -24 -42 3 -49 -6
-29 -34 18 -25 34 -29 34 -7 0 8 7 15 15 15 8 0 15 -4 15 -10 0 -5 4 -10 9
-10 17 0 8 63 -11 82 -20 20 -28 23 -28 9z"/>
<path d="M2315 3900 c3 -5 8 -10 11 -10 2 0 4 5 4 10 0 6 -5 10 -11 10 -5 0
-7 -4 -4 -10z"/>
<path d="M2670 3904 c0 -1 6 -7 14 -13 10 -8 16 -8 24 1 8 10 4 13 -14 13 -13
0 -24 -1 -24 -1z"/>
<path d="M2402 3857 c0 -42 1 -44 24 -33 13 6 19 13 14 14 -6 2 -10 10 -10 19
0 8 -7 21 -15 29 -12 13 -14 9 -13 -29z"/>
<path d="M4876 3886 c5 -14 34 -31 34 -20 0 3 -6 12 -14 20 -19 18 -27 18 -20
0z"/>
<path d="M2302 3839 c2 -6 8 -10 13 -10 5 0 11 4 13 10 2 6 -4 11 -13 11 -9 0
-15 -5 -13 -11z"/>
<path d="M4690 3841 c0 -6 4 -13 10 -16 6 -3 7 1 4 9 -7 18 -14 21 -14 7z"/>
<path d="M2740 3828 c0 -15 -139 -148 -154 -148 -10 0 -13 6 -10 15 4 9 0 15
-10 15 -9 0 -16 7 -16 16 0 8 -4 12 -10 9 -5 -3 -10 2 -10 12 -1 17 -1 17 -11
1 -12 -22 -39 -24 -39 -3 0 11 -9 15 -28 13 -15 -1 -33 2 -40 6 -9 5 -12 -1
-10 -24 1 -18 8 -35 15 -37 7 -3 13 -20 13 -39 0 -36 15 -47 23 -16 2 9 2 -12
-1 -48 l-4 -65 24 25 c14 14 22 27 18 30 -4 3 -9 15 -12 26 -4 17 -2 20 12 17
14 -4 17 2 16 34 -1 32 2 38 22 41 19 3 22 -1 22 -31 0 -22 -6 -37 -15 -41 -8
-3 -15 -11 -14 -18 0 -10 2 -10 6 0 2 6 10 12 18 12 7 0 18 7 25 15 18 22 56
13 52 -14 -2 -11 2 -21 7 -21 6 0 11 7 11 16 0 14 2 15 17 3 15 -12 16 -12 10
4 -5 14 -2 20 13 24 16 4 18 9 9 24 -5 10 -8 19 -7 20 2 0 19 2 39 4 34 4 36
2 31 -21 -5 -27 -4 -26 -26 -18 -9 3 -13 10 -10 15 3 5 0 9 -5 9 -16 0 -13
-16 5 -34 14 -15 14 -17 0 -22 -21 -8 -20 -33 2 -51 10 -9 11 -12 2 -7 -8 4
-23 14 -33 23 -17 14 -20 14 -33 -4 -8 -11 -18 -19 -22 -17 -4 1 -8 -6 -10
-17 -3 -16 4 -20 45 -23 26 -2 50 0 51 4 8 18 45 6 73 -24 16 -18 29 -28 29
-23 0 6 -11 22 -25 37 -14 15 -25 31 -25 36 0 6 -7 12 -15 16 -8 3 -15 11 -15
17 0 7 11 0 25 -15 20 -22 32 -26 80 -26 41 0 56 3 53 13 -6 15 -58 22 -58 8
0 -6 -5 -11 -10 -11 -6 0 -5 8 2 20 10 15 24 20 60 20 48 0 72 15 43 27 -10 3
-21 0 -26 -8 -7 -11 -10 -9 -15 9 -5 17 -14 22 -40 22 -22 0 -34 5 -34 14 0 7
-7 19 -15 26 -8 7 -15 17 -15 23 0 5 10 -2 23 -16 14 -17 33 -27 50 -27 23 0
27 4 27 29 0 16 -8 35 -17 42 -16 13 -17 12 -4 -3 12 -16 11 -18 -7 -18 -14 0
-22 8 -24 23 -2 16 -9 22 -26 21 -17 0 -21 4 -17 17 5 14 1 16 -15 12 -27 -7
-26 6 2 16 21 7 20 8 -10 13 -18 2 -32 1 -32 -4z m5 -38 c-4 -6 -2 -16 4 -23
7 -10 5 -13 -10 -14 -21 -2 -25 17 -7 35 15 15 21 16 13 2z m-25 -61 c0 -13
-6 -18 -20 -16 -11 2 -23 7 -27 12 -5 4 -3 5 4 1 7 -3 14 2 18 14 8 24 25 17
25 -11z m-234 -10 c3 -5 -2 -9 -11 -9 -9 0 -13 -5 -10 -10 4 -6 10 -8 15 -5 4
3 6 -5 2 -17 -5 -21 -6 -21 -29 8 -12 16 -23 34 -23 40 0 13 47 7 56 -7z m184
-34 c0 -18 -5 -25 -19 -25 -26 0 -36 17 -21 35 19 23 40 18 40 -10z"/>
<path d="M4581 3831 c-7 -5 -12 -14 -10 -20 3 -6 9 -7 18 -2 7 5 12 14 10 20
-3 6 -9 7 -18 2z"/>
<path d="M4112 3798 c-15 -15 -16 -28 -1 -28 5 0 7 5 4 11 -4 6 -1 9 6 7 8 -1
15 1 17 7 5 15 -12 17 -26 3z"/>
<path d="M4513 3802 c-8 -5 -4 -14 12 -28 13 -12 27 -19 30 -15 4 3 13 -3 21
-13 11 -16 14 -17 14 -4 0 9 -7 18 -15 22 -8 3 -15 13 -15 22 0 10 -5 14 -14
11 -8 -3 -16 -2 -18 3 -2 5 -8 6 -15 2z"/>
<path d="M2171 3784 c0 -11 3 -14 6 -6 3 7 2 16 -1 19 -3 4 -6 -2 -5 -13z"/>
<path d="M4214 3719 c-2 -5 -11 -6 -19 -2 -8 3 -15 0 -15 -5 0 -16 18 -24 25
-12 9 15 25 12 19 -3 -3 -9 2 -13 18 -11 13 1 31 3 41 3 9 1 17 6 17 12 0 6
-6 9 -14 6 -8 -3 -16 -1 -18 5 -5 13 -47 18 -54 7z"/>
<path d="M4484 3718 c3 -24 18 -39 32 -34 8 3 14 0 14 -7 0 -8 4 -6 10 3 8 13
10 13 10 -2 0 -10 -9 -18 -22 -20 -30 -4 -39 -48 -11 -48 29 0 43 20 43 62 0
31 -4 38 -20 38 -11 0 -20 5 -20 10 0 6 -9 10 -19 10 -11 0 -18 -6 -17 -12z"/>
<path d="M3752 3708 c-16 -16 -15 -28 3 -28 8 0 15 9 15 20 0 23 -2 24 -18 8z"/>
<path d="M2338 3685 c-13 -17 -15 -25 -5 -29 6 -3 1 -3 -12 0 -17 4 -22 2 -19
-7 3 -8 15 -13 27 -12 13 2 21 -3 21 -13 0 -12 2 -13 14 -2 12 11 12 13 0 16
-9 2 -12 14 -9 38 2 19 3 34 2 34 -1 0 -10 -11 -19 -25z"/>
<path d="M2897 3689 c-7 -25 2 -51 13 -44 11 6 10 65 0 65 -4 0 -10 -9 -13
-21z"/>
<path d="M3900 3696 c0 -23 16 -27 17 -5 1 10 -2 19 -8 19 -5 0 -9 -6 -9 -14z"/>
<path d="M4130 3683 c0 -15 -2 -16 -10 -3 -5 8 -12 11 -16 7 -4 -4 0 -15 9
-24 9 -9 19 -14 22 -11 10 10 14 48 4 48 -5 0 -9 -8 -9 -17z"/>
<path d="M4260 3673 c1 -11 26 -43 34 -43 3 0 6 11 6 25 0 18 -5 25 -20 25
-11 0 -20 -3 -20 -7z"/>
<path d="M2581 3641 c-8 -5 -11 -16 -8 -25 4 -9 0 -19 -9 -24 -11 -6 -5 -9 20
-9 33 0 35 2 29 26 -8 34 -15 42 -32 32z"/>
<path d="M2098 3621 c-21 -25 -32 -61 -19 -61 6 0 11 4 11 10 0 5 10 18 22 30
14 13 18 24 12 30 -6 6 -15 3 -26 -9z"/>
<path d="M3963 3627 c0 -8 6 -14 14 -13 18 3 18 20 0 24 -7 2 -14 -4 -14 -11z"/>
<path d="M4257 3620 c3 -12 1 -25 -5 -29 -15 -9 -27 -81 -13 -81 6 0 11 6 11
13 0 8 7 28 16 45 17 35 16 63 -3 69 -7 3 -9 -3 -6 -17z"/>
<path d="M4302 3627 c-20 -24 -17 -72 5 -96 l22 -23 23 22 23 23 -32 -6 c-18
-4 -35 -2 -38 3 -5 9 19 14 61 13 12 0 6 55 -7 63 -19 11 -48 12 -57 1z"/>
<path d="M2390 3595 c-8 -9 -8 -15 -2 -15 12 0 26 19 19 26 -2 2 -10 -2 -17
-11z"/>
<path d="M3720 3575 c14 -7 24 -16 22 -19 -2 -4 -2 -12 1 -19 2 -6 4 3 5 21 1
28 -2 32 -26 32 l-27 -1 25 -14z"/>
<path d="M2920 3560 c-8 -5 -12 -12 -9 -15 4 -3 12 1 19 10 14 17 11 19 -10 5z"/>
<path d="M2593 3523 c9 -9 19 -14 23 -11 10 10 -6 28 -24 28 -15 0 -15 -1 1
-17z"/>
<path d="M2643 3519 c-16 -6 -23 -17 -23 -36 l0 -27 17 24 c9 14 21 28 27 32
17 11 3 16 -21 7z"/>
<path d="M3036 3511 c-8 -14 8 -71 20 -71 7 0 17 -6 21 -12 10 -17 84 -51 91
-43 11 10 -40 95 -67 114 -25 18 -58 24 -65 12z"/>
<path d="M2550 3486 c0 -2 7 -6 15 -10 8 -3 15 -1 15 4 0 6 -7 10 -15 10 -8 0
-15 -2 -15 -4z"/>
<path d="M3990 3470 c0 -6 7 -10 15 -10 8 0 15 2 15 4 0 2 -7 6 -15 10 -8 3
-15 1 -15 -4z"/>
<path d="M4926 3465 c-3 -8 -13 -15 -23 -15 -18 0 -53 -50 -53 -75 0 -7 -6
-18 -14 -25 -19 -15 -8 -43 15 -37 10 3 26 -3 37 -14 20 -17 20 -17 30 24 22
87 28 192 8 142z"/>
<path d="M1700 3354 c0 -33 -22 -60 -40 -49 -5 3 -10 -2 -10 -13 0 -14 -9 -21
-33 -26 -19 -3 -43 -15 -54 -26 -12 -10 -24 -16 -28 -12 -11 10 1 -57 16 -93
12 -28 13 -28 16 -8 3 13 18 32 34 43 16 12 29 26 29 32 0 6 25 35 55 63 30
29 55 56 55 61 0 5 -9 20 -20 34 l-20 25 0 -31z"/>
<path d="M1988 3310 c-2 -5 -16 -11 -32 -14 -48 -9 -78 -47 -83 -103 -3 -41 0
-54 22 -79 l25 -29 0 33 c0 17 0 34 0 37 -2 20 79 73 105 70 23 -2 25 1 25 44
0 44 -1 46 -29 48 -16 1 -31 -2 -33 -7z m-78 -141 c0 -21 -4 -27 -15 -23 -8 4
-15 16 -15 28 0 14 6 23 15 23 10 0 15 -10 15 -28z"/>
<path d="M1786 3190 c4 -20 3 -22 -5 -8 -15 23 -46 16 -45 -11 0 -11 -5 -21
-13 -21 -7 0 -13 -7 -13 -16 0 -8 -4 -12 -10 -9 -5 3 -10 0 -10 -8 0 -8 -9
-22 -20 -32 -11 -10 -17 -21 -15 -25 3 -4 -5 -10 -16 -13 -17 -5 -21 -11 -16
-33 l5 -28 -19 25 -20 24 14 -36 c8 -19 22 -49 31 -65 l16 -29 -6 29 c-5 20
-4 27 5 22 8 -5 8 0 1 19 -12 32 10 59 57 69 34 8 49 31 33 51 -5 6 -7 15 -3
18 3 4 1 7 -5 7 -7 0 -12 5 -12 11 0 8 5 8 15 -1 8 -7 13 -16 10 -20 -3 -5 -1
-11 4 -14 5 -4 11 -1 14 6 2 7 2 3 0 -9 -3 -20 1 -22 32 -19 44 3 52 11 26 26
-14 7 -21 7 -21 0 0 -5 -4 -10 -10 -10 -5 0 -10 7 -10 15 0 8 6 15 14 15 7 0
19 7 26 15 7 9 20 13 27 11 11 -5 13 3 11 32 -3 35 -4 37 -40 37 -34 0 -37 -2
-32 -25z m64 -5 c0 -14 -4 -25 -8 -25 -7 0 -8 31 -3 48 4 11 11 -3 11 -23z
m-120 -115 c0 -5 -5 -10 -11 -10 -5 0 -7 5 -4 10 3 6 8 10 11 10 2 0 4 -4 4
-10z"/>
<path d="M1937 3143 c-14 -14 -6 -39 16 -48 12 -6 21 -18 21 -28 -1 -9 2 -17
7 -17 5 0 9 5 9 11 0 5 4 8 9 5 5 -4 12 0 14 6 3 8 6 6 6 -4 1 -10 7 -18 15
-18 21 0 29 17 11 24 -8 3 -15 17 -15 31 0 22 -3 25 -25 19 -19 -5 -25 -2 -25
10 0 16 -30 22 -43 9z"/>
<path d="M2090 3060 c0 -5 5 -10 10 -10 6 0 10 5 10 10 0 6 -4 10 -10 10 -5 0
-10 -4 -10 -10z"/>
<path d="M2120 3040 c0 -5 5 -10 10 -10 6 0 10 5 10 10 0 6 -4 10 -10 10 -5 0
-10 -4 -10 -10z"/>
<path d="M2262 3020 c-10 -17 -10 -20 3 -20 8 0 15 2 15 4 0 2 3 11 6 20 9 23
-9 20 -24 -4z"/>
<path d="M1785 3019 c-11 -16 -1 -19 13 -3 7 8 8 14 3 14 -5 0 -13 -5 -16 -11z"/>
<path d="M2300 3016 c0 -8 6 -17 13 -19 10 -4 10 -6 0 -6 -7 -1 -13 -6 -13
-12 0 -6 8 -9 18 -7 20 4 23 27 5 46 -15 16 -23 15 -23 -2z"/>
<path d="M2113 2960 c-1 -11 2 -18 8 -15 11 7 12 35 1 35 -4 0 -8 -9 -9 -20z"/>
<path d="M1950 2935 c0 -8 2 -15 4 -15 2 0 6 7 10 15 3 8 1 15 -4 15 -6 0 -10
-7 -10 -15z"/>
<path d="M1650 2891 c0 -6 4 -13 10 -16 6 -3 7 1 4 9 -7 18 -14 21 -14 7z"/>
<path d="M2608 2843 c6 -2 18 -2 25 0 6 3 1 5 -13 5 -14 0 -19 -2 -12 -5z"/>
<path d="M2483 2778 c-4 -7 -8 -31 -9 -53 -2 -56 -13 -93 -31 -99 -9 -4 -13
-14 -10 -25 3 -14 0 -17 -13 -14 -9 3 -20 -2 -23 -10 -4 -12 4 -16 39 -19 42
-3 48 1 45 29 -3 22 40 26 61 5 20 -20 20 -20 -18 -63 -21 -24 -5 -13 34 26
40 38 72 73 72 78 0 4 -4 6 -9 3 -5 -3 -11 0 -14 8 -3 8 -18 20 -33 28 -15 7
-26 17 -25 22 1 5 -12 16 -29 24 -27 13 -31 20 -28 44 5 31 3 34 -9 16z"/>
<path d="M1815 2749 c-15 -6 -10 -7 18 -4 24 3 36 1 32 -5 -3 -5 -15 -10 -25
-10 -24 0 -40 -29 -29 -55 7 -18 8 -17 8 7 1 25 21 52 21 29 0 -6 5 -11 10
-11 6 0 10 7 10 15 0 8 7 15 16 15 8 0 13 4 9 9 -3 5 3 12 12 14 10 3 0 5 -22
5 -22 0 -49 -4 -60 -9z"/>
<path d="M2923 2752 c-18 -3 -23 -10 -23 -33 0 -28 2 -29 43 -28 l42 2 -40 7
c-22 4 -32 8 -22 9 11 0 30 9 43 20 l24 19 -23 4 c-12 2 -32 2 -44 0z"/>
<path d="M3386 2738 c-20 -28 -20 -38 1 -53 20 -15 10 -50 -12 -41 -33 12 -6
-124 28 -146 21 -13 53 -9 70 10 23 25 21 41 -5 63 -24 21 -21 29 11 32 17 1
21 8 21 38 0 20 -5 50 -11 68 -19 53 -75 69 -103 29z m84 -8 c0 -5 -2 -10 -4
-10 -3 0 -8 5 -11 10 -3 6 -1 10 4 10 6 0 11 -4 11 -10z m-66 -206 c3 -8 2
-12 -4 -9 -6 3 -10 10 -10 16 0 14 7 11 14 -7z"/>
<path d="M3737 2742 c-9 -10 -17 -27 -16 -38 0 -14 2 -15 6 -4 4 8 13 20 21
26 8 6 13 16 11 23 -3 9 -10 7 -22 -7z"/>
<path d="M2636 2742 c-6 -10 22 -47 30 -40 3 4 3 16 -1 27 -6 21 -20 27 -29
13z"/>
<path d="M2806 2686 c-3 -14 -3 -33 1 -43 6 -16 8 -15 14 7 10 37 10 60 0 60
-5 0 -12 -11 -15 -24z"/>
<path d="M3831 2692 c-1 -7 -5 -11 -10 -8 -5 3 -28 -13 -51 -35 -33 -33 -44
-38 -52 -28 -6 9 -8 -3 -5 -39 6 -78 44 -110 98 -82 15 8 18 17 13 37 -5 17
-3 24 4 19 16 -9 27 79 14 117 -5 18 -10 26 -11 19z"/>
<path d="M1905 2640 c-26 -28 -14 -43 13 -15 12 13 19 26 14 29 -5 3 -17 -3
-27 -14z"/>
<path d="M2756 2643 c-4 -5 -11 -8 -15 -8 -5 0 -21 -16 -37 -35 -16 -19 -21
-29 -13 -22 25 19 61 -2 81 -49 18 -43 32 -49 48 -19 6 11 15 20 21 20 6 0 22
-9 36 -20 28 -22 69 -26 93 -10 11 8 8 9 -13 4 -19 -4 -27 -3 -25 5 3 11 -16
24 -75 52 -15 7 -38 30 -49 51 -21 37 -37 46 -52 31z"/>
<path d="M2630 2525 l-23 -25 34 1 c25 1 28 3 11 6 -23 4 -23 5 -6 24 26 28
11 23 -16 -6z"/>
<path d="M2247 2503 c3 -7 0 -20 -7 -28 -10 -12 -9 -15 4 -15 9 0 17 3 17 8 6
34 4 49 -6 49 -7 0 -11 -6 -8 -14z"/>
<path d="M2280 2489 c0 -16 -5 -29 -11 -29 -6 0 -9 -10 -7 -22 3 -20 10 -23
49 -26 63 -4 82 18 48 54 -16 17 -31 24 -46 21 -13 -2 -23 -1 -23 4 0 4 10 9
23 11 20 3 20 4 -5 9 -25 6 -28 4 -28 -22z"/>
<path d="M2362 2498 c-15 -15 3 -38 30 -38 10 0 16 -4 13 -10 -3 -5 3 -10 14
-10 24 0 27 18 9 42 -18 22 -52 30 -66 16z"/>
<path d="M2885 2373 c0 -37 4 -48 18 -51 24 -5 21 -19 -4 -27 -15 -5 -25 -2
-31 9 -5 9 -15 16 -23 16 -7 0 -16 6 -18 13 -4 9 -7 9 -15 -1 -5 -7 -15 -12
-22 -10 -8 2 -16 -5 -18 -14 -2 -10 -17 -32 -34 -48 -25 -25 -36 -30 -59 -25
-16 4 -29 13 -29 21 0 8 -7 14 -15 14 -12 0 -15 -13 -15 -55 0 -42 3 -55 15
-55 8 0 15 -9 15 -20 0 -10 7 -23 16 -28 9 -5 15 -15 13 -21 -3 -8 -15 1 -29
21 -31 41 -40 43 -90 17 -35 -18 -45 -20 -67 -10 -14 6 -27 10 -29 8 -14 -14
268 -108 361 -121 22 -3 0 5 -48 18 -83 23 -116 36 -88 36 7 0 9 5 6 10 -10
16 0 12 25 -10 42 -36 73 -20 73 38 l0 39 53 0 c53 0 72 -11 37 -20 -11 -3 -6
-5 11 -6 19 -1 27 3 23 12 -4 10 3 12 24 9 17 -3 29 0 29 7 0 6 -11 11 -25 11
-14 0 -26 6 -26 13 -1 6 -3 24 -5 40 -2 18 2 27 12 27 8 0 14 5 14 10 0 6 -11
8 -25 4 -31 -8 -35 20 -6 36 16 8 22 6 29 -6 14 -26 32 -7 30 31 -1 20 6 43
15 53 9 10 15 28 14 40 -1 20 -7 22 -57 22 l-56 0 1 -47z"/>
<path d="M2296 2381 c-4 -7 -5 -15 -2 -18 9 -9 19 4 14 18 -4 11 -6 11 -12 0z"/>
<path d="M4289 2330 c-13 -10 -19 -19 -13 -20 6 0 19 9 29 20 23 26 14 26 -16
0z"/>
<path d="M2425 2170 c-3 -5 -1 -10 4 -10 6 0 11 5 11 10 0 6 -2 10 -4 10 -3 0
-8 -4 -11 -10z"/>
<path d="M2850 2090 c0 -5 5 -10 10 -10 6 0 10 5 10 10 0 6 -4 10 -10 10 -5 0
-10 -4 -10 -10z"/>
<path d="M3190 1888 l-1 -73 -42 -20 c-59 -28 -87 -74 -87 -142 0 -79 33 -131
105 -164 27 -13 30 -19 33 -66 3 -52 3 -52 -37 -72 -48 -25 -78 -62 -87 -106
-7 -40 9 -96 36 -120 17 -16 20 -31 20 -112 l0 -93 -115 0 c-120 0 -166 -12
-179 -45 -9 -25 -7 -94 4 -114 15 -30 38 -35 165 -41 l120 -5 5 -277 c5 -268
6 -278 27 -299 15 -16 34 -22 64 -22 35 0 48 6 71 32 l28 31 0 270 0 270 121
0 c120 0 121 0 150 29 41 41 41 101 0 142 -29 29 -30 29 -150 29 l-121 0 0 90
c0 79 3 93 25 126 52 76 24 173 -61 213 l-45 22 3 52 c3 47 6 53 33 66 76 35
109 90 103 171 -5 70 -32 110 -93 140 l-45 22 0 69 c0 67 -1 69 -25 69 -24 0
-25 -2 -25 -72z m93 -616 c9 -8 17 -24 17 -34 0 -18 -2 -18 -22 -4 -26 18 -80
21 -110 5 -28 -15 -32 -6 -8 23 15 20 28 25 62 26 25 0 50 -7 61 -16z"/>
</g>
</svg>
